<?xml version="1.0" encoding="iso-8859-1"?>
<!-- Generator: Adobe Illustrator 16.0.0, SVG Export Plug-In . SVG Version: 6.00 Build 0)  -->
<!DOCTYPE svg PUBLIC "-//W3C//DTD SVG 1.1//EN" "http://www.w3.org/Graphics/SVG/1.1/DTD/svg11.dtd">
<svg version="1.1" id="Layer_1" xmlns="http://www.w3.org/2000/svg" xmlns:xlink="http://www.w3.org/1999/xlink" x="0px" y="0px"
	 width="71.083px" height="17.25px" viewBox="0 0 71.083 17.25" style="enable-background:new 0 0 71.083 17.25;"
	 xml:space="preserve">
<g>
	<path style="fill:#FFFFFF;" d="M12.422,17.06l-4.029-5.793L4.435,17.06H0l6.175-8.487L0.31,0.37h4.387l3.838,5.412l3.767-5.412
		h4.172l-5.817,8.059l6.223,8.631H12.422z"/>
	<path style="fill:#FFFFFF;" d="M30.446,11.695h-9.704c0.174,0.795,0.588,1.423,1.24,1.884c0.651,0.461,1.462,0.691,2.432,0.691
		c0.667,0,1.26-0.1,1.776-0.299c0.516-0.198,0.997-0.513,1.442-0.941l1.979,2.146c-1.208,1.383-2.973,2.074-5.293,2.074
		c-1.447,0-2.726-0.281-3.839-0.846c-1.112-0.564-1.971-1.348-2.575-2.349C17.301,13.054,17,11.918,17,10.646
		c0-1.256,0.298-2.388,0.894-3.397c0.596-1.01,1.414-1.796,2.456-2.36c1.041-0.564,2.206-0.847,3.493-0.847
		c1.255,0,2.392,0.271,3.41,0.811c1.017,0.541,1.815,1.315,2.396,2.325c0.58,1.009,0.87,2.181,0.87,3.517
		C30.518,10.741,30.494,11.075,30.446,11.695z M21.744,7.57c-0.572,0.478-0.922,1.129-1.049,1.955h6.318
		c-0.127-0.811-0.477-1.458-1.049-1.942c-0.572-0.485-1.272-0.728-2.098-0.728C23.023,6.855,22.316,7.094,21.744,7.57z"/>
	<path style="fill:#FFFFFF;" d="M38.35,4.519c0.755-0.317,1.625-0.477,2.61-0.477v3.434c-0.413-0.032-0.691-0.048-0.834-0.048
		c-1.065,0-1.899,0.298-2.504,0.894c-0.604,0.597-0.906,1.49-0.906,2.683v6.056h-3.719V4.232h3.553v1.693
		C36.995,5.306,37.595,4.837,38.35,4.519z"/>
	<path style="fill:#FFFFFF;" d="M45.527,16.404c-1.074-0.564-1.912-1.348-2.516-2.349c-0.605-1.002-0.906-2.138-0.906-3.409
		s0.301-2.408,0.906-3.409c0.604-1.002,1.441-1.784,2.516-2.349c1.072-0.564,2.283-0.847,3.635-0.847s2.559,0.282,3.625,0.847
		c1.064,0.564,1.898,1.347,2.502,2.349c0.605,1.001,0.906,2.138,0.906,3.409s-0.301,2.407-0.906,3.409
		c-0.604,1.001-1.438,1.784-2.502,2.349c-1.066,0.564-2.273,0.846-3.625,0.846S46.6,16.969,45.527,16.404z M51.512,13.233
		c0.611-0.645,0.918-1.506,0.918-2.587s-0.307-1.943-0.918-2.587c-0.613-0.644-1.396-0.966-2.35-0.966s-1.74,0.322-2.359,0.966
		c-0.621,0.644-0.93,1.506-0.93,2.587s0.309,1.942,0.93,2.587c0.619,0.644,1.406,0.965,2.359,0.965S50.898,13.877,51.512,13.233z"/>
	<path style="fill:#FFFFFF;" d="M66.424,17.06l-2.813-3.934l-2.91,3.934h-4.053l4.936-6.461l-4.768-6.366h4.172l2.717,3.743
		l2.791-3.743h3.957l-4.768,6.271l4.959,6.557H66.424z"/>
</g>
</svg>
