<?xml version="1.0" encoding="utf-8"?>
<svg width="1271px" height="631px" viewBox="0 0 1271 631" version="1.1" xmlns:xlink="http://www.w3.org/1999/xlink" xmlns="http://www.w3.org/2000/svg">
  <path d="M1433.5 201.5L1433.5 699.502Q1433.5 701.073 1433.42 702.642Q1433.34 704.211 1433.19 705.775Q1433.04 707.338 1432.81 708.893Q1432.58 710.447 1432.27 711.987Q1431.96 713.528 1431.58 715.052Q1431.2 716.576 1430.74 718.08Q1430.29 719.583 1429.76 721.063Q1429.23 722.542 1428.63 723.993Q1428.03 725.445 1427.35 726.865Q1426.68 728.285 1425.94 729.671Q1425.2 731.056 1424.39 732.404Q1423.59 733.751 1422.71 735.058Q1421.84 736.364 1420.9 737.626Q1419.97 738.888 1418.97 740.102Q1417.98 741.317 1416.92 742.481Q1415.86 743.645 1414.75 744.756Q1413.64 745.867 1412.48 746.922Q1411.31 747.977 1410.1 748.974Q1408.89 749.97 1407.62 750.906Q1406.36 751.842 1405.06 752.715Q1403.75 753.588 1402.4 754.396Q1401.05 755.203 1399.67 755.944Q1398.28 756.684 1396.86 757.356Q1395.44 758.028 1393.99 758.629Q1392.54 759.23 1391.06 759.76Q1389.58 760.289 1388.08 760.745Q1386.57 761.201 1385.05 761.583Q1383.53 761.964 1381.99 762.271Q1380.44 762.578 1378.89 762.808Q1377.34 763.039 1375.77 763.193Q1374.21 763.347 1372.64 763.424Q1371.07 763.501 1369.5 763.501L231.498 763.496Q229.927 763.496 228.358 763.419Q226.788 763.342 225.225 763.188Q223.661 763.034 222.107 762.804Q220.553 762.573 219.012 762.267Q217.471 761.96 215.947 761.578Q214.423 761.197 212.92 760.74Q211.416 760.284 209.937 759.755Q208.458 759.226 207.006 758.625Q205.555 758.023 204.135 757.352Q202.714 756.68 201.329 755.939Q199.943 755.199 198.596 754.391Q197.248 753.583 195.942 752.71Q194.636 751.837 193.374 750.902Q192.112 749.966 190.897 748.969Q189.683 747.972 188.519 746.917Q187.355 745.862 186.244 744.751Q185.133 743.64 184.078 742.476Q183.023 741.312 182.026 740.098Q181.029 738.883 180.093 737.621Q179.157 736.359 178.285 735.053Q177.412 733.747 176.604 732.399Q175.796 731.052 175.056 729.666Q174.315 728.28 173.643 726.86Q172.972 725.44 172.371 723.988Q171.769 722.537 171.24 721.058Q170.711 719.578 170.255 718.075Q169.799 716.572 169.417 715.047Q169.035 713.523 168.729 711.983Q168.422 710.442 168.192 708.888Q167.961 707.334 167.807 705.77Q167.653 704.207 167.576 702.637Q167.499 701.068 167.499 699.497L167.501 201.495Q167.501 199.924 167.578 198.355Q167.655 196.786 167.809 195.222Q167.963 193.659 168.194 192.105Q168.424 190.55 168.731 189.01Q169.037 187.469 169.419 185.945Q169.801 184.421 170.257 182.917Q170.713 181.414 171.242 179.935Q171.771 178.455 172.373 177.004Q172.974 175.552 173.646 174.132Q174.317 172.712 175.058 171.326Q175.799 169.941 176.606 168.593Q177.414 167.246 178.287 165.939Q179.16 164.633 180.096 163.371Q181.032 162.109 182.028 160.895Q183.025 159.68 184.08 158.516Q185.135 157.352 186.246 156.241Q187.357 155.13 188.521 154.075Q189.685 153.02 190.9 152.023Q192.114 151.027 193.376 150.091Q194.638 149.155 195.944 148.282Q197.251 147.409 198.598 146.601Q199.946 145.794 201.331 145.053Q202.717 144.313 204.137 143.641Q205.557 142.969 207.009 142.368Q208.46 141.767 209.94 141.237Q211.419 140.708 212.922 140.252Q214.426 139.796 215.95 139.414Q217.474 139.033 219.015 138.726Q220.556 138.42 222.11 138.189Q223.664 137.959 225.227 137.805Q226.791 137.651 228.36 137.573Q229.929 137.496 231.5 137.496L1369.5 137.501Q1371.07 137.501 1372.64 137.578Q1374.21 137.655 1375.78 137.809Q1377.34 137.963 1378.89 138.193Q1380.45 138.424 1381.99 138.73Q1383.53 139.037 1385.05 139.419Q1386.58 139.801 1388.08 140.257Q1389.58 140.713 1391.06 141.242Q1392.54 141.771 1393.99 142.372Q1395.44 142.974 1396.87 143.645Q1398.29 144.317 1399.67 145.058Q1401.06 145.798 1402.4 146.606Q1403.75 147.414 1405.06 148.287Q1406.36 149.159 1407.63 150.095Q1408.89 151.031 1410.1 152.028Q1411.32 153.025 1412.48 154.08Q1413.65 155.135 1414.76 156.246Q1415.87 157.357 1416.92 158.521Q1417.98 159.685 1418.97 160.899Q1419.97 162.114 1420.91 163.376Q1421.84 164.638 1422.72 165.944Q1423.59 167.25 1424.4 168.598Q1425.2 169.945 1425.94 171.331Q1426.68 172.717 1427.36 174.137Q1428.03 175.557 1428.63 177.009Q1429.23 178.46 1429.76 179.939Q1430.29 181.419 1430.75 182.922Q1431.2 184.425 1431.58 185.949Q1431.96 187.473 1432.27 189.014Q1432.58 190.555 1432.81 192.109Q1433.04 193.663 1433.19 195.227Q1433.35 196.79 1433.42 198.36Q1433.5 199.929 1433.5 201.5Z" id="Rectangle-Copy" fill="none" fill-rule="evenodd" stroke="#CBE2EC" stroke-width="4" stroke-dasharray="11 11" />
</svg>