<?xml version="1.0" encoding="iso-8859-1"?>
<!-- Generator: Adobe Illustrator 16.0.0, SVG Export Plug-In . SVG Version: 6.00 Build 0)  -->
<!DOCTYPE svg PUBLIC "-//W3C//DTD SVG 1.1//EN" "http://www.w3.org/Graphics/SVG/1.1/DTD/svg11.dtd">
<svg version="1.1" id="Layer_1" xmlns="http://www.w3.org/2000/svg" xmlns:xlink="http://www.w3.org/1999/xlink" x="0px" y="0px"
	 width="512px" height="509px" viewBox="702.5 49.5 512 509" style="enable-background:new 702.5 49.5 512 509;"
	 xml:space="preserve">
<g id="freepik--Floor--inject-29">
	<polygon style="fill:#263238;" points="718.584,430.536 778.932,430.248 839.292,430.14 960,429.936 1080.708,430.14 
		1141.068,430.248 1201.416,430.536 1141.068,430.836 1080.708,430.932 960,431.136 839.292,430.932 778.932,430.824 	"/>
</g>
<g id="freepik--Plants--inject-29">
	<path style="fill:#FFC727;" d="M1169.244,396.816c-4.044-5.221-8.641-10.969-8.4-17.904c0.265-6.384,2.4-13.477,8.28-16.884
		c1.68-0.96,2.904-1.296,3.444,0.852c0.815,3.288-0.588,7.284-1.284,10.477c-0.962,4.097-1.532,8.275-1.704,12.479
		c-0.084,2.964,0.12,5.916,0.107,8.88c0,0.372,0,0.744,0,1.116c0,0.132,0,0.288,0,0.42l0.108,0.156c0.046,0.099,0.046,0.213,0,0.312
		c-0.01,0.041-0.031,0.078-0.06,0.108C1169.597,396.961,1169.377,396.955,1169.244,396.816z"/>
	<path style="fill:#FFFFFF;" d="M1169.784,396.828c-3.3-4.8-7.2-9.696-6.685-15.756c0.285-2.825,1.015-5.587,2.16-8.185
		c0.504-1.2,1.969-4.716,3.504-4.8c2.784-0.144-0.936,11.028-1.115,12.348c-0.557,4.856,0.158,9.772,2.075,14.269
		c0,0.372,0,0.744,0,1.116c-1.412-3.154-2.296-6.52-2.615-9.96c-0.421-4.801,1.2-8.748,2.063-13.345
		c0.192-0.983,0.96-4.128-0.744-3.876c-1.128,0.168-2.58,3.601-2.892,4.345c-1.073,2.465-1.77,5.078-2.064,7.752
		c-0.575,6.12,3.169,11.088,6.385,15.972C1169.845,396.754,1169.819,396.796,1169.784,396.828z"/>
	<path style="fill:#FFC727;" d="M1168.104,402.12l-0.72,0.312l0,0c-0.055,0.035-0.125,0.035-0.18,0
		c-0.116-0.08-0.152-0.235-0.084-0.359c0.026-0.047,0.069-0.081,0.12-0.096h0.107l0.217-0.072l0,0l0,0
		c2.855-3.504,6.275-6.517,9.107-10.068s5.16-6.96,8.112-10.128c1.86-2.004,11.7-11.376,13.8-5.58c0.924,2.568-1.104,6.252-2.4,8.4
		c-1.721,2.849-3.944,5.361-6.563,7.416C1183.271,396.948,1175.46,398.868,1168.104,402.12z"/>
	<path style="fill:#FFFFFF;" d="M1182.804,393.876c2.563-1.699,4.871-3.756,6.853-6.108c0.684-0.815,3.947-4.8,2.868-6
		c-0.685-0.84-2.532,0.252-3.156,0.589c-2.652,1.451-4.56,4.02-6.588,6.191c-4.131,4.403-8.579,8.498-13.309,12.252l-1.02,0.54
		l-0.853,0.456l-0.287,0.156l-0.217,0.132c-0.063,0.125-0.027,0.276,0.084,0.36l0.66-0.349l-0.479,0.372l0,0l0.575-0.264
		l0.145-0.061c0.264-0.191,0.54-0.396,0.792-0.6C1173.663,399.266,1178.315,396.705,1182.804,393.876z M1170.612,400.176
		c2.771-2.184,5.412-4.523,7.968-6.972c2.052-1.968,4.008-4.032,5.916-6.132c1.042-1.227,2.187-2.362,3.42-3.396
		c0.972-0.768,4.8-3.275,3.84,0.265c-0.672,2.567-3.96,5.436-5.868,7.067c-2.143,1.804-4.444,3.41-6.876,4.8
		C1176.264,397.332,1173.42,398.736,1170.612,400.176z"/>
	<path style="fill:#FFC727;" d="M1155.492,415.56L1155.492,415.56c-0.063-0.051-0.115-0.111-0.156-0.18
		c-3.275-5.076-8.4-11.256-8.124-17.664c0.229-4.728,2.832-11.076,7.524-13.008c5.304-2.172,4.271,7.836,4.128,10.392
		c-0.633,6.853-1.65,13.663-3.048,20.4v0.12l0,0C1155.708,415.729,1155.6,415.656,1155.492,415.56z"/>
	<path style="fill:#FFFFFF;" d="M1155.756,415.632c0-0.408-0.06-0.815-0.084-1.2c-0.288-4.668-0.384-9.359-0.228-14.04
		c0-1.199,0.972-10.224-1.38-9.792c-1.416,0.265-2.269,3.601-2.58,4.74c-0.557,1.985-0.775,4.05-0.648,6.108
		c0.313,4.728,2.725,9,4.404,13.392c0.084,0.204,0.168,0.408,0.24,0.624v0.132l0,0
		C1155.6,415.656,1155.708,415.729,1155.756,415.632z M1151.568,403.944c-0.408-2.067-0.469-4.188-0.181-6.276
		c0.192-1.38,1.032-6.384,2.796-6.479c0.925-0.061,0.828,0.527,1.009,1.584c0.081,0.484,0.134,0.973,0.155,1.464
		c0,1.199,0,2.399-0.096,3.6c-0.107,2.112-0.168,4.224-0.18,6.348c0,3.469,0.107,6.925,0.336,10.381
		C1154.196,411,1152.324,407.64,1151.568,403.944z"/>
	<path style="fill:#FFC727;" d="M1172.004,417.252c-6.528,2.758-13.731,3.506-20.688,2.148h-0.12
		c-0.095-0.079-0.128-0.21-0.084-0.324c0.04-0.127,0.169-0.204,0.3-0.18l0.432,0.071c7.2-3.972,14.484-7.836,21.66-12
		c1.68-0.972,12.576-6.948,13.2-2.7c0.36,2.629-3.601,5.7-5.376,7.2C1178.539,413.868,1175.394,415.819,1172.004,417.252z"/>
	<path style="fill:#FFFFFF;" d="M1179.6,409.056c0.433-0.563,0.793-1.271,0-1.607c-1.596-0.66-6.647,2.256-8.088,2.987
		c-6,3.049-12,5.484-18.216,7.969l-1.572,0.636h-0.611c-0.049,0.114-0.014,0.247,0.084,0.324h0.168c0.264,0,0.552,0,0.828,0l0,0
		c4.387,0.031,8.752-0.625,12.936-1.944c2.64-0.833,5.186-1.939,7.597-3.3C1174.956,412.8,1178.076,411.132,1179.6,409.056z
		 M1152.492,419.028h-0.396c0.229-0.072,0.444-0.132,0.66-0.216c4.921-1.617,9.731-3.553,14.4-5.797
		c2.399-1.199,4.632-2.399,7.031-3.516c1.009-0.456,3.828-1.824,4.801-1.392c0.972,0.432-0.061,1.128-0.576,1.607
		c-0.516,0.48-1.104,0.876-1.477,1.2c-7.07,5.214-15.61,8.054-24.396,8.112H1152.492z"/>
	<path style="fill:#FFC727;" d="M1137.6,430.536l-0.707-0.972l2.543-1.921c3.396-2.615,6.769-5.256,10.093-7.968
		c1.907-1.548,3.768-3.096,5.567-4.704c0.059-0.062,0.123-0.118,0.192-0.168l0.432-0.408c0.152-0.128,0.309-0.271,0.468-0.432
		c4.091-3.613,7.586-7.85,10.356-12.552c0.912-1.596,1.74-3.229,2.532-4.884c0.084-0.156,0.156-0.313,0.228-0.469
		c0.025-0.041,0.045-0.086,0.061-0.132c0.084-0.168,0.155-0.324,0.228-0.504l0.18-0.372c2.4-5.124,4.297-10.452,6.36-15.672
		c0.588-1.488,1.2-2.988,1.788-4.476l0.108-0.265c0-0.107,0.084-0.228,0.132-0.336c2.652-6.588,5.376-13.2,7.848-19.8
		c0.084-0.252,0.456-0.072,0.36,0.168c-1.608,4.452-3.12,8.928-4.656,13.416c-0.192,0.6-0.408,1.2-0.612,1.788
		c-0.408,1.2-0.804,2.4-1.199,3.528c-0.801,2.399-1.645,4.744-2.532,7.031c-2.298,6.66-5.003,13.173-8.101,19.5
		c-0.239,0.469-0.491,0.925-0.744,1.381c-0.252,0.455-0.312,0.588-0.491,0.852c-0.181,0.264-0.36,0.66-0.564,0.984
		c-3.468,5.551-7.892,10.442-13.067,14.447l-1.057,0.864l-0.492,0.408c-0.093,0.065-0.181,0.138-0.264,0.216l-0.348,0.264l0,0
		l-0.265,0.204l-0.924,0.721c-3.372,2.64-6.792,5.231-10.2,7.812C1139.724,428.856,1138.632,429.696,1137.6,430.536z"/>
	<path style="fill:#FFC727;" d="M1179.516,356.016c1.668-5.268,6.637-14.052,13.345-12.888c2.612,0.383,4.522,2.665,4.439,5.304
		c0,3.168-2.196,6.156-4.067,8.532c-4.992,6.349-10.561,12.168-15.108,18.864c0,0.072-0.396,0.576-0.492,0.731
		c-0.096,0.156-0.288,0-0.204-0.168l0.444-0.659C1177.896,369.24,1177.523,362.268,1179.516,356.016z"/>
	<path style="fill:#FFFFFF;" d="M1178.136,375.876c0,0,0-0.096,0.061-0.144c0.835-2.007,1.789-3.963,2.855-5.856
		c2.288-3.907,4.81-7.674,7.548-11.28c1.045-1.403,6.288-8.088,1.944-8.556c-1.824-0.192-3.696,1.356-4.944,2.496
		c-1.99,1.841-3.593,4.061-4.716,6.528c-2.304,4.871-2.819,10.26-2.903,15.6c0,0.24,0,0.492,0,0.732l-0.097,0.216
		c-0.026,0.044-0.047,0.093-0.06,0.144c-0.012,0.031-0.012,0.065,0,0.096c0.022,0.104,0.125,0.17,0.229,0.147
		c0.004-0.001,0.008-0.002,0.012-0.003C1178.104,375.969,1178.131,375.925,1178.136,375.876z M1178.136,374.304
		c0.052-4.411,0.772-8.788,2.136-12.983c0.781-2.169,1.877-4.211,3.252-6.061c0.616-0.815,1.299-1.578,2.041-2.279
		c0.552-0.533,1.15-1.015,1.787-1.44c1.393-0.936,3.276-1.452,3.996-0.744c0.9,0.864,0.564,1.62-0.107,3.096
		c-0.231,0.499-0.492,0.984-0.78,1.452c-0.718,1.159-1.495,2.281-2.328,3.36c-1.355,1.824-2.688,3.6-3.96,5.508
		c-0.863,1.26-1.704,2.556-2.484,3.876c-1.363,2.261-2.566,4.614-3.6,7.044c-0.012-0.275,0.012-0.552,0.024-0.828H1178.136z"/>
	<path style="fill:#FFC727;" d="M726.528,388.392c3.252,3.013,6.312,6.229,9.323,9.469c1.717,1.848,3.396,3.708,5.124,5.544
		c1.885,2.027,3.673,4.296,6.324,5.292l0,0c0.118,0.05,0.228,0.119,0.324,0.204l0,0c0.046,0.18-0.063,0.362-0.243,0.407
		c-0.055,0.014-0.111,0.014-0.165,0l-0.18-0.071H747c-0.818-0.095-1.623-0.279-2.4-0.553c-2.184-0.514-4.335-1.154-6.443-1.92
		c-4.338-1.53-8.466-3.599-12.288-6.155c-3.411-2.297-6.503-5.037-9.192-8.148c-2.147-2.496-5.376-6.18-6-9.54
		c-0.54-3.036,3.385-2.4,5.196-1.908C720,382.284,723.432,385.56,726.528,388.392z"/>
	<path style="fill:#FFFFFF;" d="M716.64,386.172c-0.936,1.309,2.604,5.269,4.093,7.032c2.347,2.781,5.026,5.265,7.979,7.392
		c5.325,3.775,11.254,6.615,17.532,8.4l0.756,0.228h0.072l0.168,0.061c0.178,0.053,0.364-0.05,0.417-0.228
		c0.018-0.059,0.019-0.121,0.003-0.181c-0.504-0.228-0.984-0.468-1.452-0.732c-0.468-0.264-0.864-0.479-1.272-0.731
		c-4.535-2.7-8.472-6.456-12.336-10.032C728.064,393.229,717.888,384.444,716.64,386.172z M745.608,408.3
		c0.624,0.349,1.271,0.672,1.907,0.973l-1.523-0.505c-5.48-1.75-10.699-4.232-15.517-7.38c-2.701-1.792-5.203-3.867-7.464-6.191
		c-1.208-1.25-2.338-2.572-3.384-3.96c-0.432-0.588-3.288-4.057-2.532-4.74c0.528-0.468,3.805,1.668,3.876,1.704
		c0.648,0.42,1.296,0.876,1.92,1.344c1.309,0.948,2.557,1.98,3.78,3.024c2.664,2.279,5.196,4.704,7.776,7.067
		C737.816,402.951,741.562,405.858,745.608,408.3z"/>
	<path style="fill:#FFC727;" d="M751.104,374.916c2.965,5.736,3.696,12.324,3.696,18.684c0,3.42-0.071,6.828-0.107,10.225
		c-0.196,3.047-0.088,6.106,0.323,9.132c0,0.12,0,0.264,0.084,0.396c0.178,0.828,0.447,1.633,0.805,2.4
		c0.023,0.049,0.023,0.106,0,0.156l0.144,0.228c0,0.061,0,0.132-0.084,0.084l-0.216-0.191l0,0c-0.082,0.017-0.164-0.029-0.192-0.108
		v-0.096l-0.204-0.192c-4.979-4.596-7.764-12.359-9.6-18.6s-2.771-12.889-1.128-19.2c0.42-1.596,1.128-5.4,3.06-6
		C749.616,371.232,750.48,373.692,751.104,374.916z"/>
	<path style="fill:#FFFFFF;" d="M748.476,378.624c-1.956,0.336-1.535,5.688-1.476,6.996c0.248,3.964,0.843,7.899,1.776,11.76
		c1.211,6.302,3.401,12.376,6.491,18l0,0l0.072,0.216c0.063,0.074,0.13,0.143,0.204,0.204c-0.007,0.032-0.007,0.064,0,0.096
		c0.032,0.076,0.111,0.12,0.192,0.108l-0.072-0.3c-0.216-0.78-0.396-1.584-0.564-2.4c0-0.144-0.06-0.275-0.084-0.396
		c-0.931-5.594-1.496-11.241-1.691-16.908c-0.231-3.946-0.825-7.863-1.776-11.7C751.284,383.364,750.12,378.36,748.476,378.624z
		 M750.229,381.468c2.676,6.181,2.592,13.524,3.035,20.124c0.193,4.45,0.816,8.87,1.86,13.2c-2.614-5.187-4.522-10.699-5.676-16.392
		c-0.772-3.221-1.361-6.481-1.765-9.769c-0.237-1.781-0.338-3.579-0.3-5.376c0.011-1.08,0.147-2.155,0.408-3.204
		C748.464,378.144,749.771,380.4,750.229,381.468L750.229,381.468z"/>
	<path style="fill:#FFC727;" d="M766.548,424.488c0.058,0.108,0.058,0.239,0,0.348h0.132c0.06,0,0.108,0.049,0.108,0.108
		c0.013,0.044-0.012,0.091-0.057,0.104c-0.009,0.002-0.019,0.004-0.027,0.003c-7.668,1.2-16.2,1.561-23.748-0.492
		c-3.195-0.852-6.231-2.217-8.988-4.044c-1.872-1.26-5.651-3.815-5.868-6.348c-0.42-5.088,13.068,0.192,15.097,0.996
		c3.695,1.464,7.271,3.228,10.932,4.8c4.021,1.68,8.16,3.048,12.288,4.44C766.467,424.42,766.512,424.449,766.548,424.488z"/>
	<path style="fill:#FFFFFF;" d="M766.536,424.488c-0.408,0-0.816-0.072-1.2-0.132c-6.708-0.747-13.262-2.524-19.428-5.269
		c-3.059-1.462-6.233-2.666-9.492-3.6c-0.816-0.192-3.816-1.2-3.336,0.779c0.252,0.996,5.196,3.853,6.54,4.488
		c3.091,1.405,6.344,2.425,9.684,3.036c5.588,1.107,11.292,1.511,16.98,1.2h0.492c0-0.053-0.043-0.097-0.096-0.097
		c-0.004,0-0.009,0-0.013,0.001h-0.12C766.637,424.772,766.632,424.605,766.536,424.488z M752.136,423.9
		c-3.338-0.458-6.62-1.262-9.792-2.4c-1.256-0.463-2.482-1.004-3.672-1.62c-0.941-0.47-1.848-1.007-2.712-1.607
		c-2.076-1.513-2.496-2.064-2.315-2.46c0.18-0.396,0.552-0.385,2.231-0.108c1.089,0.199,2.154,0.509,3.18,0.924
		c1.452,0.552,2.904,1.2,4.332,1.776c2.88,1.2,5.736,2.52,8.7,3.54c4.234,1.492,8.649,2.412,13.128,2.735
		c-4.378,0.106-8.757-0.154-13.092-0.779H752.136z"/>
	<path style="fill:#FFC727;" d="M765.744,402.456c1.824,2.086,3.175,4.542,3.96,7.2c1.752,5.22,2.399,10.8,3.744,16.067
		c0.216,0.792,0.432,1.584,0.684,2.4c0,0.084,0.552,0.948,0.492,0.9c-0.06-0.049-0.276-0.265-0.696-0.708l0,0
		c-2.076-2.172-8.256-8.88-10.62-13.416c-1.558-2.807-2.767-5.793-3.6-8.893c-0.336-1.464-0.96-4.8,0.504-5.928
		S764.748,401.4,765.744,402.456z"/>
	<path style="fill:#FFFFFF;" d="M762.6,403.74c-2.052,0.852,2.196,9.888,2.725,11.076c1.983,4.39,4.529,8.505,7.572,12.239
		c0.336,0.433,0.684,0.841,1.031,1.261l0.685,0.708c0,0-0.444-0.816-0.492-0.912c-0.048-0.097-0.072-0.276-0.12-0.408
		c-0.192-0.648-0.384-1.308-0.54-1.956c-1.356-3.6-2.64-7.2-4.068-10.704c-0.999-2.561-2.203-5.036-3.6-7.404
		C765.48,407.1,763.5,403.368,762.6,403.74z M764.28,405.6c4.596,6.589,6.264,14.521,9.3,21.841c0,0.132,0.096,0.239,0.144,0.359
		l-0.384-0.479c-2.443-3.146-4.588-6.513-6.408-10.057c-1.098-2.163-2.063-4.391-2.892-6.672c-0.513-1.233-0.941-2.5-1.284-3.792
		c-0.12-0.563-0.396-2.124,0-2.315C763.152,404.292,763.98,405.18,764.28,405.6z"/>
	<path style="fill:#FFC727;" d="M725.928,350.652c7.2,12.071,3.601,27.6,9.96,40.008v0.06c0.192,0.372,0.396,0.756,0.612,1.128
		c0.068,0.129,0.019,0.289-0.11,0.357c-0.025,0.013-0.053,0.022-0.082,0.027c-0.079,0.004-0.154-0.038-0.191-0.108l-0.145-0.264
		c-5.735-5.328-10.38-12.564-13.8-19.561c-2.964-6.096-4.92-12.924-3.9-19.728c0.24-1.681,0.625-5.028,2.652-5.652
		C722.952,346.296,725.04,349.2,725.928,350.652z"/>
	<path style="fill:#FFFFFF;" d="M723.444,355.092c-0.853,0.276-0.96,1.524-1.057,2.208c-0.245,1.709-0.282,3.442-0.107,5.16
		c0.356,3.524,1.242,6.976,2.628,10.236c2.18,5.651,5.05,11.012,8.544,15.96c0.804,1.104,1.656,2.172,2.556,3.191l0.336,0.385
		c0.145-0.023,0.242-0.158,0.22-0.303c-0.005-0.028-0.014-0.056-0.027-0.082c-0.216-0.359-0.396-0.72-0.601-1.092
		c-0.006-0.031-0.006-0.064,0-0.096c-1.461-2.388-2.687-4.912-3.659-7.536c-1.345-4.143-2.423-8.367-3.229-12.648
		C728.64,368.808,726.348,354.132,723.444,355.092z M725.352,357.492c1.477,3.156,1.944,6.756,2.7,10.128s1.488,6.828,2.292,10.224
		c0.646,2.704,1.518,5.35,2.604,7.908c0.905,2.135,2.001,4.184,3.275,6.12c-1.442-1.737-2.773-3.565-3.983-5.472v-0.084
		c-2.118-3.452-4.021-7.031-5.7-10.717c-0.015-0.046-0.035-0.09-0.06-0.132c-1.551-3.217-2.707-6.609-3.444-10.104
		c-0.379-1.904-0.544-3.844-0.492-5.784c0.108-2.208,0.42-3.972,1.2-3.996c0.479-0.048,1.176,1.044,1.607,2.016V357.492z"/>
	<path style="fill:#FFC727;" d="M726.828,375.42c1.979,3.48,4.044,6.948,6.12,10.393c0.976,1.6,1.956,3.199,2.939,4.8
		c-0.006,0.031-0.006,0.064,0,0.096l1.057,1.752c3.191,5.269,6.348,10.8,10.368,15.516c2.152,2.465,4.531,4.723,7.104,6.744
		l0.804,0.624l0,0l0.444,0.324l0.252,0.192c2.232,1.728,4.572,3.348,6.852,4.907c3.168,2.185,6.469,4.141,9.792,6.061
		c0.091,0.065,0.187,0.122,0.288,0.168l0.444,0.275l0.24,0.12c0.136,0.092,0.275,0.176,0.42,0.252
		c1.067,0.624,2.136,1.2,3.192,1.872l-0.673,0.96c-3.49-1.563-6.859-3.385-10.08-5.447l-0.191-0.133
		c-0.324-0.191-0.636-0.396-0.948-0.6l-1.2-0.744l-2.712-1.836c-5.365-3.458-10.301-7.543-14.7-12.168L746.4,409.2l-0.145-0.168
		l-0.252-0.276l-0.384-0.468l-0.672-0.84l-0.192-0.252c-3.314-4.592-6.313-9.402-8.976-14.4c-0.504-0.9-0.996-1.776-1.488-2.676
		l-0.828-1.488c-0.396-0.756-0.804-1.523-1.2-2.268v-0.084c-1.908-3.601-3.731-7.2-5.664-10.74
		C726.456,375.408,726.732,375.252,726.828,375.42z"/>
</g>
<g id="freepik--Monster--inject-29">
	<path style="fill:#FFC727;" d="M871.008,165.06c-7.452,6.252-44.088,51.192-98.604,36.708c0,0,9.372,38.76,27.899,38.76
		c18.528,0,29.604-28.128,29.604-28.128s2.016,4.908,6.815,4.476c9.757-0.864,27.048-29.064,34.284-44.94V165.06z"/>
	<path style="opacity:0.1;enable-background:new    ;" d="M871.008,165.06c-7.452,6.252-44.088,51.192-98.604,36.708
		c0,0,9.372,38.76,27.899,38.76c18.528,0,29.604-28.128,29.604-28.128s2.016,4.908,6.815,4.476
		c9.757-0.864,27.048-29.064,34.284-44.94V165.06z"/>
	<path style="opacity:0.1;enable-background:new    ;" d="M871.008,165.06v4.524c-4.656,6.696-27.684,38.304-50.124,43.752
		c-25.128,6.12-48.479-11.568-48.479-11.568C826.92,216.252,863.556,171.312,871.008,165.06z"/>
	<path style="fill:#FFC727;" d="M1048.992,165.06c7.452,6.252,44.088,51.192,98.604,36.708c0,0-9.372,38.76-27.899,38.76
		c-18.528,0-29.604-28.128-29.604-28.128s-2.016,4.908-6.815,4.476c-9.757-0.864-27.048-29.064-34.284-44.94V165.06z"/>
	<path style="opacity:0.1;enable-background:new    ;" d="M1048.992,165.06c7.452,6.252,44.088,51.192,98.604,36.708
		c0,0-9.372,38.76-27.899,38.76c-18.528,0-29.604-28.128-29.604-28.128s-2.016,4.908-6.815,4.476
		c-9.757-0.864-27.048-29.064-34.284-44.94V165.06z"/>
	<path style="opacity:0.1;enable-background:new    ;" d="M1048.992,165.06v4.524c4.656,6.696,27.684,38.304,50.124,43.752
		c25.128,6.12,48.479-11.568,48.479-11.568C1093.08,216.252,1056.444,171.312,1048.992,165.06z"/>
	<path style="fill:#FFC727;" d="M1113.912,498.444c-6.816-0.841-100.104-31.08-101.809-31.08c-1.703,0-25.836,2.124-52.115,2.124
		c-26.28,0-50.4-2.124-52.104-2.124s-94.979,30.24-101.796,31.08S738,415.813,740.916,412.8c2.916-3.012,25.56,1.704,28.104,1.284
		c2.545-0.42,46.009-25.548,46.44-27.696c0.432-2.147,7.2-55.367,14.484-97.116c7.284-41.748,22.704-104.4,40.884-124.236
		s63.048-31.2,89.16-31.2c26.111,0,71.004,11.352,89.184,31.2c18.18,19.848,33.6,82.488,40.884,124.236
		c7.284,41.749,14.053,94.992,14.484,97.116s43.872,27.276,46.428,27.696c2.557,0.42,25.128-4.26,28.116-1.284
		C1182.072,415.776,1120.729,499.308,1113.912,498.444z"/>
	<path style="fill:#FFC727;" d="M930.252,137.916c1.836-0.876,10.309-10.032,21.792-13.2c3.972-1.08-3.348,7.2-3.348,7.2
		s17.04-10.248,23.903-12.72c11.461-4.14,17.148-5.004,17.148-3.108c0,4.236-17.855,12.204-20.855,15.6
		c0,0,10.596-2.568,14.159-0.336c3.564,2.232-9.372,4.488-9.372,4.488L930.252,137.916z"/>
	<path style="opacity:0.1;enable-background:new    ;" d="M937.816,219.028c1.268,6.127,1.471,12.428,0.6,18.624
		c-0.775,6.306-2.86,12.379-6.12,17.832c-1.696,2.707-3.71,5.201-6,7.428c-2.333,2.161-4.91,4.042-7.68,5.604
		c-5.579,2.931-11.712,4.656-18,5.064c5.982-1.324,11.721-3.58,17.004-6.684c2.532-1.624,4.893-3.501,7.044-5.604
		c2.1-2.138,3.947-4.509,5.508-7.068c3.116-5.193,5.26-10.91,6.324-16.872C937.67,231.319,938.113,225.167,937.816,219.028z"/>
	<path style="fill:#FFFFFF;" d="M901.288,188.5c-23.448,0-35.244,18-35.244,39.024c0,17.028,13.92,34.416,36.42,34.416
		s36.433-20.4,36.433-36.42S926.8,188.5,901.288,188.5z"/>
	<path style="fill:#263238;" d="M901.6,196.48c-18.359,0-27.6,14.088-27.6,30.54c0,13.38,10.8,26.94,28.464,26.94
		s28.513-15.996,28.513-28.512C930.977,212.932,921.472,196.48,901.6,196.48z"/>
	<path style="fill:#FFFFFF;" d="M910,196.768c-8.34,0-12.528,6.408-12.528,13.872c0.142,6.904,5.854,12.387,12.758,12.245
		c0.063-0.001,0.127-0.003,0.19-0.005c7.992,0,12.948-7.272,12.948-12.948c-0.02-7.29-5.945-13.185-13.235-13.165
		C910.089,196.767,910.045,196.768,910,196.768z"/>
	<path style="fill:#263238;" d="M880.432,184.18c8.04,1.488,16.068,3.036,24.097,4.596c8.027,1.56,16.056,3.072,24.06,4.716
		l-0.468,1.896l-44.4-12.24l0.696-2.964c14.568,2.616,29.136,5.172,43.68,7.86l-0.779,3.396l-22.116-6.12l-22.14-6.204l0.743-3.432
		l23.688,3.804l23.676,3.864l-0.612,3L884.656,174.1l0.359-1.908c7.944,1.008,15.864,2.172,23.809,3.252
		c7.943,1.08,15.863,2.208,23.784,3.384c-8-0.72-15.973-1.488-23.916-2.304c-7.969-0.804-15.948-1.524-23.904-2.4l0.348-1.908
		l46.177,11.16l-0.612,3l-23.725-3.6l-23.712-3.6l0.744-3.42l22.152,6.132l22.14,6.216l-0.792,3.396
		c-14.544-2.688-29.063-5.532-43.596-8.292l0.696-2.964l44.1,13.284l-0.479,1.908c-7.98-1.776-15.925-3.708-23.881-5.556
		C896.392,188.032,888.4,186.124,880.432,184.18z"/>
	<path style="opacity:0.1;enable-background:new    ;" d="M982.4,219.028c-0.337,6.134,0.065,12.287,1.199,18.324
		c1.061,5.961,3.199,11.679,6.313,16.872c1.564,2.559,3.416,4.93,5.52,7.068c2.149,2.106,4.51,3.984,7.045,5.604
		c5.281,3.106,11.02,5.362,17.004,6.684c-6.289-0.408-12.422-2.133-18-5.064c-2.772-1.559-5.35-3.44-7.681-5.604
		c-2.289-2.228-4.304-4.721-6-7.428c-3.26-5.453-5.345-11.526-6.12-17.832C980.854,231.448,981.098,225.149,982.4,219.028z"/>
	<path style="fill:#FFFFFF;" d="M1018.928,188.5c23.448,0,35.232,18,35.232,39.024c0,17.028-13.908,34.416-36.42,34.416
		s-36.42-20.4-36.42-36.42S993.464,188.5,1018.928,188.5z"/>
	<path style="fill:#263238;" d="M1018.664,196.48c18.36,0,27.6,14.088,27.6,30.54c0,13.332-10.896,26.94-28.512,26.94
		s-28.523-15.96-28.523-28.512C989.229,212.896,998.732,196.48,1018.664,196.48z"/>
	<path style="fill:#FFFFFF;" d="M1010.168,196.768c8.34,0,12.528,6.408,12.528,13.872c-0.142,6.904-5.854,12.387-12.758,12.245
		c-0.063-0.001-0.127-0.003-0.19-0.005c-8.004,0-12.948-7.272-12.948-12.948c0.02-7.29,5.945-13.185,13.235-13.165
		C1010.079,196.767,1010.124,196.768,1010.168,196.768z"/>
	<path style="fill:#263238;" d="M1039.568,184.18c-7.944,1.944-15.9,3.816-23.868,5.676s-15.9,3.78-23.88,5.556l-0.48-1.908
		l44.101-13.284l0.695,2.964c-14.532,2.76-29.052,5.604-43.596,8.292l-0.792-3.396l22.14-6.216l22.152-6.132l0.744,3.42l-23.712,3.6
		l-23.725,3.6l-0.611-3l46.176-11.16l0.348,1.908c-7.956,0.876-15.936,1.596-23.904,2.4c-7.968,0.804-15.936,1.584-23.915,2.304
		c7.92-1.176,15.848-2.304,23.783-3.384c7.944-1.08,15.864-2.244,23.809-3.252l0.36,1.908l-45.9,12.324l-0.612-3l23.676-3.864
		l23.688-3.804l0.744,3.432l-22.188,6.156l-22.164,6.12l-0.78-3.396c14.545-2.688,29.112-5.244,43.681-7.86l0.696,2.964l-44.4,12.24
		l-0.468-1.896c8.004-1.644,16.044-3.144,24.06-4.716C1023.439,187.204,1031.528,185.668,1039.568,184.18z"/>
	<path style="fill:#263238;" d="M997.824,297.504c-1.752,3.6-22.801-1.332-37.813-1.332c-15.912,0-36.084,4.969-37.836,1.332
		c-1.752-3.636,7.824-39.696,37.824-39.696S999.6,293.856,997.824,297.504z"/>
	<path style="fill:#FF99BA;" d="M985.788,298.404c-7.668-0.756-17.64-2.232-25.776-2.232c-8.531,0-18.312,1.44-25.788,2.196
		c9.444-18.18,19.296-19.716,25.788-12.456C966.492,278.652,976.355,280.188,985.788,298.404z"/>
	<path style="fill:#FFFFFF;" d="M942.576,297.432c-4.212,0.492-8.185,0.972-11.484,1.2l3.276-12.3l4.8-0.852L942.576,297.432z"/>
	<path style="fill:#FFFFFF;" d="M991.404,298.8c-3.433-0.108-7.933-0.636-12.769-1.2l4.584-10.14l6.097,0.42L991.404,298.8z"/>
	<path style="fill:#37474F;" d="M1039.548,328.729c-1.849-9.876-5.51-19.323-10.8-27.864c-5.034-8.027-11.692-14.911-19.548-20.208
		c-5.767-3.891-12.147-6.78-18.876-8.544c-0.432,1.067-1.227,1.947-2.244,2.484c-1.535,0.527-3.236,0.131-4.38-1.02
		c-0.596,1.354-1.649,2.454-2.977,3.108c-1.968,0.744-3.6-1.332-3.6-1.332s-2.052,5.088-5.892,5.256
		c-3.841,0.168-5.809-6.312-5.809-6.312s-1.464,3.204-3.804,3.204s-5.892-4.488-5.892-4.488s0-0.312,0-0.804l-1.668,0.516
		c-8.989,2.898-17.277,7.634-24.337,13.908c-7.479,6.699-13.651,14.727-18.204,23.676c-10.053,20.193-13.351,43.083-9.407,65.292
		c1.844,9.877,5.506,19.325,10.8,27.864c5.007,7.97,11.649,14.784,19.488,19.992c16.355,10.584,36.522,13.486,55.199,7.944
		c9.008-2.813,17.309-7.518,24.349-13.801c7.485-6.697,13.659-14.73,18.204-23.688c10.021-20.182,13.313-43.043,9.396-65.232
		V328.729z M1003.848,356.892c-0.893,6.604-2.655,13.06-5.244,19.2c-2.186,5.246-5.24,10.086-9.035,14.316
		c-3.287,3.659-7.355,6.53-11.904,8.399c-4.376,1.751-9.141,2.298-13.8,1.584c-4.762-0.612-9.271-2.494-13.057-5.447
		c-3.829-3.089-6.917-6.996-9.036-11.437c-2.45-5.129-4.02-10.634-4.644-16.284c-0.749-6.637-0.612-13.343,0.408-19.943
		c0.889-6.666,2.652-13.187,5.244-19.393c2.194-5.275,5.261-10.144,9.071-14.399c3.287-3.659,7.355-6.53,11.904-8.4
		c4.47-1.732,9.319-2.246,14.052-1.488c4.669,0.639,9.083,2.507,12.792,5.412c3.814,3.075,6.89,6.967,9,11.389
		c2.465,5.169,4.031,10.721,4.633,16.416C1004.977,343.496,1004.848,350.245,1003.848,356.892z"/>
	<path style="fill:#455A64;" d="M1033.2,327.324c-1.852-9.875-5.513-19.321-10.8-27.864c-5.045-8.026-11.712-14.909-19.572-20.208
		c-5.769-3.89-12.149-6.782-18.876-8.556c-0.423,1.075-1.22,1.961-2.244,2.496c-1.537,0.521-3.237,0.121-4.38-1.032
		c-0.593,1.359-1.646,2.464-2.977,3.12c-1.968,0.732-3.6-1.344-3.6-1.344s-2.052,5.088-5.892,5.268
		c-3.841,0.18-5.796-6.312-5.796-6.312s-1.477,3.204-3.816,3.204s-5.893-4.5-5.893-4.5s0-0.312,0-0.792
		c-0.563,0.156-1.115,0.336-1.668,0.516c-8.985,2.891-17.27,7.624-24.323,13.896c-7.484,6.702-13.661,14.734-18.216,23.688
		c-10.028,20.18-13.313,43.045-9.372,65.231c1.846,9.876,5.507,19.324,10.8,27.864c4.99,7.99,11.626,14.826,19.464,20.052
		c16.354,10.588,36.523,13.49,55.2,7.944c9.005-2.801,17.31-7.489,24.359-13.752c7.486-6.697,13.66-14.73,18.204-23.688
		C1033.84,372.379,1037.133,349.513,1033.2,327.324z M997.44,355.476c-0.895,6.604-2.658,13.06-5.244,19.2
		c-2.186,5.246-5.241,10.086-9.036,14.316c-3.286,3.659-7.355,6.53-11.904,8.399c-4.378,1.743-9.141,2.29-13.8,1.584
		c-4.752-0.6-9.259-2.456-13.056-5.376c-3.837-3.084-6.93-6.992-9.049-11.436c-2.452-5.132-4.018-10.642-4.632-16.296
		c-1.372-13.373,0.569-26.879,5.652-39.324c2.186-5.277,5.249-10.146,9.06-14.399c3.291-3.654,7.358-6.525,11.904-8.4
		c4.465-1.748,9.314-2.279,14.052-1.536c4.668,0.632,9.084,2.496,12.792,5.4c3.834,3.091,6.926,7.003,9.049,11.447
		c2.46,5.171,4.022,10.722,4.619,16.416C998.579,342.13,998.442,348.854,997.44,355.476z"/>
	<path style="fill:#FFFFFF;" d="M974.4,260.976l-3.061,16.8h-7.452l-2.124-15.756l-0.924,10.356l-7.596,0.36l-2.16-13.836
		c2.906-0.789,5.904-1.192,8.916-1.2C964.984,257.7,969.906,258.82,974.4,260.976z"/>
	<path d="M960,469.488l-0.107,0.071l-0.121-0.071H960z"/>
	<path d="M959.76,469.488H960l-0.107,0.071L959.76,469.488z"/>
	<path style="opacity:0.1;enable-background:new    ;" d="M900.468,462.6c0,0,30.804,6.853,59.292,6.889
		c-26.16,0-50.16-2.124-51.876-2.124s-94.968,30.24-101.784,31.08c-2.855,0.359-15.168-13.933-28.355-30.948
		c5.376,3.708,26.748,18.384,29.292,18.384C810,485.88,900.468,462.6,900.468,462.6z"/>
	<path style="opacity:0.1;enable-background:new    ;" d="M1142.52,467.136c-13.283,17.172-25.752,31.681-28.619,31.309
		c-6.816-0.841-100.093-31.08-101.797-31.08c-1.703,0-25.848,2.124-52.115,2.124c28.5,0,59.304-6.889,59.304-6.889
		s90.54,23.28,93.432,23.28C1115.352,485.88,1138.224,470.112,1142.52,467.136z"/>
	<path style="fill:#FFC727;" d="M831.276,281.856c0,0-36.696,43.873-34.992,77.724s31.956,57.3,72.204,57.516c0,0,17.292,2.34,24,0
		c0,0-8.221-13.632-9.072-15.768c0,0,18.108-4.896,28.332-19.8c0,0-14.4-6.612-21.036-14.064c0,0,8.892-13.2,10.8-14.904
		c0,0-18.312,1.272-24.708,2.557c0,0-28.319-1.704-39.396-22.152S831.276,281.856,831.276,281.856z"/>
	<path style="fill:#263238;" d="M808.416,391.572c3.63,4.28,7.848,8.025,12.528,11.124c4.628,3.14,9.596,5.748,14.808,7.775
		c1.284,0.528,2.64,0.912,3.948,1.393l1.968,0.672l2.028,0.54l4.044,1.056l4.104,0.756l2.064,0.372
		c0.684,0.097,1.38,0.145,2.076,0.229l4.151,0.432c2.772,0.204,5.568,0.18,8.4,0.276h0.144c3.938,0.558,7.904,0.87,11.88,0.936
		c3.93,0.144,7.861-0.216,11.7-1.067l-0.66,1.535l-4.703-7.8l-2.305-3.948c-0.756-1.355-1.5-2.592-2.195-4.163l-0.48-1.068
		l1.2-0.384c2.729-0.898,5.393-1.989,7.968-3.265c2.587-1.267,5.089-2.702,7.488-4.296c2.386-1.587,4.63-3.378,6.708-5.352
		c2.045-1.971,3.882-4.146,5.483-6.492l0.517,1.74c-1.992-0.912-3.876-1.885-5.761-2.916c-1.884-1.032-3.731-2.124-5.543-3.288
		c-3.699-2.287-7.087-5.042-10.08-8.196l-0.564-0.624l0.444-0.708c1.655-2.616,3.348-5.195,5.111-7.752
		c0.889-1.271,1.776-2.532,2.736-3.78c0.957-1.319,2.061-2.526,3.288-3.6l0.684,1.896c-4.115,0.239-8.244,0.552-12.348,0.924
		s-8.22,0.779-12.252,1.464H876.9h-0.061c-5.772-0.213-11.472-1.368-16.872-3.42c-5.399-2.004-10.368-5.018-14.64-8.88
		c-4.197-3.917-7.55-8.649-9.852-13.908c-2.241-5.233-3.654-10.784-4.188-16.452c0.792,5.604,2.409,11.059,4.8,16.188
		c2.403,5.082,5.826,9.616,10.057,13.319c4.235,3.657,9.12,6.486,14.399,8.34c5.243,1.89,10.76,2.907,16.332,3.013h-0.156
		c4.128-0.78,8.257-1.284,12.396-1.716c4.14-0.433,8.268-0.732,12.42-1.009l3.216-0.204l-2.544,2.112
		c-1.05,0.979-1.999,2.06-2.832,3.229c-0.912,1.199-1.788,2.46-2.652,3.72c-1.716,2.52-3.384,5.1-5.004,7.691l-0.107-1.331
		c2.855,2.983,6.081,5.589,9.6,7.752c1.769,1.119,3.576,2.176,5.424,3.168c1.836,0.996,3.732,1.943,5.604,2.796l1.296,0.588
		l-0.78,1.2c-1.687,2.509-3.646,4.823-5.844,6.899c-2.191,2.052-4.552,3.914-7.056,5.568c-2.497,1.633-5.099,3.1-7.788,4.392
		c-2.69,1.311-5.469,2.429-8.316,3.349l0.708-1.452c0.528,1.2,1.32,2.592,2.04,3.888l2.256,3.924l4.645,7.8l0.731,1.2l-1.368,0.324
		c-4.021,0.882-8.14,1.232-12.252,1.044c-4.064-0.147-8.116-0.548-12.132-1.2h0.145c-2.832-0.155-5.664-0.18-8.484-0.443
		l-4.224-0.517c-0.708-0.096-1.404-0.168-2.112-0.275l-2.076-0.42l-4.164-0.841l-4.092-1.199l-2.052-0.576l-1.992-0.732
		c-1.32-0.504-2.676-0.936-3.96-1.512c-5.219-2.177-10.178-4.93-14.784-8.208C815.973,399.949,811.872,396.03,808.416,391.572z"/>
	<path style="fill:#FFC727;" d="M807.036,319.26c0,0-16.344,15.96-16.92,27.48c-0.204,4.151,6.12-4.248,6.12-4.248
		s-4.656,14.22-3.828,18.588s3.899-6.444,3.899-6.444L807.036,319.26z"/>
	<path style="fill:#FFC727;" d="M1088.268,279.6c0,0,27.013,50.4,18.456,83.22c-8.556,32.819-42.936,49.571-82.392,41.58
		c0,0-17.412-1.2-23.484-4.872c0,0,10.801-11.677,12.097-13.584c0,0-16.729-8.484-23.712-25.2c0,0,15.432-3.528,23.459-9.48
		c0,0-6-14.735-7.56-16.8c0,0,17.676,4.98,23.676,7.536c0,0,28.08,4.092,43.08-13.668S1088.268,279.6,1088.268,279.6z"/>
	<path style="fill:#263238;" d="M1095.78,384.264c-4.079,5.11-9.042,9.447-14.652,12.805c-5.6,3.418-11.661,6.012-18,7.704
		c-6.351,1.654-12.889,2.485-19.452,2.472c-6.562,0.01-13.106-0.646-19.536-1.956h0.145c-4.063-0.188-8.111-0.628-12.12-1.32
		c-4.064-0.654-8.025-1.836-11.784-3.516l-1.271-0.601l0.96-1.056l6.144-6.696l2.988-3.3c0.96-1.116,2.016-2.315,2.771-3.384
		l0.408,1.572c-2.601-1.479-5.095-3.14-7.464-4.969c-2.376-1.808-4.625-3.776-6.732-5.892c-2.125-2.118-4.061-4.419-5.783-6.876
		c-1.741-2.476-3.187-5.146-4.309-7.956L987.6,360l1.356-0.3c2.016-0.456,4.056-1.008,6.06-1.596c2.004-0.589,3.996-1.272,6-2.005
		c3.902-1.399,7.611-3.287,11.04-5.615l-0.384,1.271c-1.044-2.868-2.16-5.736-3.324-8.556c-0.588-1.404-1.199-2.809-1.848-4.176
		c-0.324-0.685-0.648-1.356-1.008-2.005c-0.316-0.61-0.687-1.192-1.104-1.739l-2.256-2.628l3.3,0.912
		c4.021,1.104,7.992,2.268,12,3.504c4.008,1.235,7.896,2.592,11.772,4.199h-0.144c5.479,1.028,11.087,1.158,16.607,0.385
		c5.548-0.737,10.905-2.517,15.792-5.244c4.899-2.793,9.168-6.568,12.54-11.088c3.378-4.537,6.053-9.558,7.932-14.893
		c-1.649,5.447-4.156,10.596-7.428,15.252c-3.322,4.685-7.569,8.639-12.479,11.616c-4.97,2.923-10.452,4.865-16.152,5.724
		c-5.707,0.911-11.524,0.879-17.22-0.096l0,0h-0.097c-3.804-1.5-7.739-2.736-11.688-3.924s-7.933-2.4-11.904-3.42l1.044-1.729
		c0.546,0.66,1.021,1.377,1.416,2.137c0.384,0.695,0.732,1.403,1.08,2.1c0.672,1.416,1.296,2.832,1.908,4.26
		c1.2,2.856,2.328,5.725,3.42,8.628l0.288,0.792l-0.672,0.492c-3.575,2.48-7.45,4.496-11.532,6c-2.016,0.8-4.048,1.496-6.096,2.088
		c-2.064,0.624-4.116,1.2-6.24,1.681l0.852-1.597c2.205,5.226,5.409,9.971,9.433,13.969c2.023,2.056,4.185,3.972,6.468,5.735
		c2.262,1.764,4.644,3.367,7.128,4.8l1.092,0.612l-0.684,0.948c-1.008,1.404-1.98,2.46-3,3.6l-3.061,3.504l-6.191,6.673l-0.3-1.645
		c3.584,1.607,7.358,2.753,11.231,3.408c3.904,0.755,7.852,1.26,11.82,1.512h0.144c6.31,1.386,12.742,2.134,19.2,2.232
		c6.463,0.108,12.913-0.597,19.2-2.101c6.312-1.504,12.373-3.908,18-7.14c2.805-1.625,5.48-3.463,8.004-5.496
		C1091.433,389.028,1093.733,386.756,1095.78,384.264z"/>
	<path style="fill:#FFC727;" d="M1108.332,345.492c0,0,3.696,13.32,1.428,20.844c-2.268,7.524-3.036-3.528-3.036-3.528
		s-0.876,14.124-2.508,14.809c-1.632,0.684-0.636-5.856-0.636-5.856L1108.332,345.492z"/>
	<g style="opacity:0.1;">
		<path d="M776.556,419.628c0.553,9.601,20.509,10.8,24.12,0.828C804.288,410.484,775.848,407.52,776.556,419.628z"/>
		<path d="M1081.104,470.724c-2.399,7.633,11.16,13.729,16.549,6.841C1103.04,470.676,1084.104,461.076,1081.104,470.724z"/>
		<path d="M988.92,453.42c-0.912,3.276,2.964,4.956,4.74,1.8C995.436,452.064,990.061,449.268,988.92,453.42z"/>
		<path d="M1077.504,381.804c3.336,6.973,18.624,1.824,18.276-6.731C1095.432,366.516,1073.292,372.972,1077.504,381.804z"/>
		<path d="M813.96,418.932c2.736,2.952-4.464,7.141-6.516,4.188C805.392,420.168,811.764,416.556,813.96,418.932z"/>
		<path d="M888.18,183.024c-3.035,2.604-6.144-2.88-3.168-4.92C887.988,176.064,890.628,180.936,888.18,183.024z"/>
		<path d="M1093.308,359.256c2.725,2.952-4.464,7.141-6.527,4.176C1084.716,360.468,1091.112,356.88,1093.308,359.256z"/>
		<path d="M804.648,402c7.703-1.356,7.115,11.376,0,10.668C797.532,411.96,797.724,403.2,804.648,402z"/>
		<path d="M821.664,337.428c3.6-0.647,3.372,5.376,0,5.053C818.292,342.156,818.4,338.004,821.664,337.428z"/>
		<path d="M897.78,307.92c3.6-0.647,3.359,5.376,0,5.052C894.42,312.648,894.504,308.496,897.78,307.92z"/>
		<path d="M1048.92,187.332c3.6-0.636,3.372,5.388,0,5.052C1045.548,192.048,1045.645,187.92,1048.92,187.332z"/>
		<path d="M824.616,324.492c4.26-4.128,10.416,7.032,5.483,9.168C825.168,335.796,820.8,328.2,824.616,324.492z"/>
		<path d="M1076.88,268.872c5.892-0.636,3.888,11.94-1.319,10.596C1070.352,278.124,1071.6,269.448,1076.88,268.872z"/>
		<path d="M1009.32,456c3.6,4.729-8.221,9.492-9.756,4.332C998.028,455.172,1006.104,451.788,1009.32,456z"/>
		<path d="M881.04,161.508c7.704-1.356,7.116,11.376,0,10.668S874.128,162.732,881.04,161.508z"/>
	</g>
	<polygon style="fill:#455A64;" points="942.672,483.78 947.352,479.976 953.412,481.872 953.412,484.824 	"/>
	<polygon style="fill:#455A64;" points="974.052,483.612 972.864,482.028 977.328,482.448 976.596,483.852 	"/>
	<path style="fill:#455A64;" d="M965.544,487.596c0,0,2.604-2.399,3.12-2.771s6.6-0.168,6.504,1.392
		c-0.096,1.561-0.432,5.196-1.128,5.196h-5.544L965.544,487.596z"/>
	<polygon style="fill:#455A64;" points="960.348,478.932 963.444,477.504 966.564,477.18 965.916,479.808 965.232,480.492 
		961.632,480.229 	"/>
	<path style="fill:#455A64;" d="M957.6,481.5h0.937l0.624,1.14h-2.4c0,0-0.624-0.168-0.228-0.396
		C956.928,482.016,957.6,481.5,957.6,481.5z"/>
</g>
<g id="freepik--404-error--inject-29">
	<path style="fill:#37474F;" d="M812.16,502.68v-40.416h-79.2v-32.268l90.864-116.628h24.672v116.399H872.4v32.544h-23.904v40.368
		H812.16z M769.308,429.72h46.921V368.4L769.308,429.72z"/>
	<path style="fill:#455A64;" d="M805.439,502.68v-40.416H726.24v-32.268l90.863-116.628h24.673v116.399h23.868v32.544h-23.868
		v40.368H805.439z M762.588,429.72h46.92V368.4L762.588,429.72z"/>
	<path style="fill:#37474F;" d="M1133.544,502.68v-40.416h-79.2v-32.268l90.853-116.628h24.684v116.399h23.88v32.544h-23.867v40.368
		H1133.544z M1090.692,429.72h46.907V368.4L1090.692,429.72z"/>
	<path style="fill:#455A64;" d="M1126.8,502.68v-40.416h-79.2v-32.268l90.853-116.628h24.684v116.399h23.904v32.544h-23.868v40.368
		H1126.8z M1083.948,429.72h46.92V368.4L1083.948,429.72z"/>
	<path style="fill:#263238;" d="M905.64,96.936c-1.758,0.022-3.497-0.355-5.088-1.104c-1.486-0.705-2.82-1.695-3.924-2.916
		c-2.2-2.451-3.425-5.623-3.444-8.916c-0.002-1.679,0.324-3.342,0.961-4.896c0.615-1.529,1.506-2.932,2.627-4.14
		c1.123-1.208,2.473-2.183,3.973-2.868c1.57-0.713,3.279-1.074,5.004-1.056c1.753-0.024,3.487,0.362,5.064,1.128
		c1.481,0.728,2.807,1.738,3.899,2.976c1.083,1.23,1.937,2.644,2.521,4.176c0.596,1.53,0.9,3.158,0.899,4.8
		c0.007,1.669-0.312,3.324-0.936,4.872c-0.604,1.516-1.482,2.908-2.593,4.104c-1.119,1.199-2.465,2.166-3.959,2.844
		C909.068,96.633,907.36,96.973,905.64,96.936z M898.224,84c-0.002,1.088,0.168,2.169,0.505,3.204
		c0.316,0.993,0.813,1.92,1.464,2.736c0.653,0.801,1.472,1.452,2.399,1.908c1.999,0.979,4.338,0.979,6.336,0
		c0.933-0.47,1.752-1.138,2.4-1.956c0.641-0.827,1.128-1.762,1.439-2.76c0.32-1.005,0.482-2.053,0.48-3.108
		c0.004-1.089-0.17-2.171-0.516-3.204c-0.354-1.03-0.895-1.986-1.597-2.82c-0.635-0.793-1.433-1.439-2.34-1.896
		c-2-0.953-4.323-0.953-6.324,0c-0.911,0.471-1.709,1.135-2.34,1.944c-0.631,0.821-1.11,1.747-1.416,2.736
		C898.382,81.823,898.216,82.909,898.224,84z"/>
	<path style="fill:#263238;" d="M930.192,97.116c-1.42,0.022-2.829-0.247-4.141-0.792c-1.172-0.496-2.229-1.227-3.107-2.148
		c-0.854-0.897-1.522-1.953-1.968-3.108c-0.913-2.4-0.913-5.052,0-7.452c0.445-1.159,1.113-2.219,1.968-3.12
		c0.878-0.917,1.937-1.645,3.107-2.136c2.655-1.056,5.613-1.056,8.269,0c1.164,0.498,2.217,1.224,3.096,2.136
		c0.846,0.905,1.51,1.964,1.956,3.12c0.912,2.4,0.912,5.052,0,7.452c-0.442,1.151-1.103,2.207-1.944,3.108
		c-0.871,0.924-1.926,1.656-3.096,2.148C933.021,96.869,931.611,97.139,930.192,97.116z M925.26,87.36
		c-0.008,0.777,0.122,1.549,0.385,2.28c0.233,0.655,0.588,1.262,1.043,1.788c0.426,0.51,0.959,0.92,1.561,1.2
		c1.235,0.561,2.652,0.561,3.888,0c0.602-0.287,1.138-0.695,1.572-1.2c0.458-0.528,0.813-1.139,1.044-1.8
		c0.258-0.74,0.384-1.52,0.372-2.304c0.009-0.772-0.116-1.54-0.372-2.268c-0.231-0.661-0.586-1.271-1.044-1.8
		c-0.435-0.505-0.971-0.913-1.572-1.2c-0.61-0.276-1.273-0.416-1.943-0.408c-0.673-0.005-1.338,0.142-1.944,0.432
		c-0.598,0.288-1.129,0.696-1.561,1.2c-0.458,0.528-0.813,1.139-1.043,1.8C925.383,85.812,925.253,86.583,925.26,87.36z"/>
	<path style="fill:#263238;" d="M952.008,97.116c-1.42,0.022-2.829-0.247-4.14-0.792c-1.176-0.496-2.237-1.227-3.12-2.148
		c-0.846-0.9-1.51-1.956-1.956-3.108c-0.912-2.4-0.912-5.052,0-7.452c0.446-1.156,1.11-2.215,1.956-3.12
		c0.883-0.918,1.945-1.645,3.12-2.136c1.311-0.545,2.72-0.814,4.14-0.792c1.412-0.024,2.813,0.246,4.116,0.792
		c1.168,0.492,2.222,1.219,3.096,2.136c0.854,0.901,1.522,1.961,1.968,3.12c0.913,2.4,0.913,5.052,0,7.452
		c-0.441,1.151-1.102,2.207-1.943,3.108c-0.871,0.924-1.926,1.656-3.096,2.148C954.837,96.869,953.428,97.139,952.008,97.116z
		 M947.076,87.36c-0.007,0.776,0.119,1.547,0.372,2.28c0.233,0.655,0.588,1.262,1.044,1.788c0.432,0.508,0.968,0.917,1.572,1.2
		c1.234,0.561,2.652,0.561,3.888,0c0.602-0.287,1.137-0.695,1.571-1.2c0.451-0.532,0.801-1.142,1.032-1.8
		c0.268-0.738,0.397-1.519,0.384-2.304c0.012-0.773-0.118-1.542-0.384-2.268c-0.231-0.658-0.581-1.268-1.032-1.8
		c-0.435-0.505-0.97-0.913-1.571-1.2c-0.61-0.276-1.274-0.416-1.944-0.408c-0.672-0.005-1.337,0.142-1.943,0.432
		c-0.601,0.289-1.135,0.697-1.572,1.2c-0.459,0.528-0.813,1.139-1.044,1.8C947.197,85.814,947.071,86.584,947.076,87.36z"/>
	<path style="fill:#263238;" d="M976.416,97.116c-1.363,0.03-2.708-0.314-3.888-0.996c-1.089-0.643-1.984-1.567-2.593-2.676V104.4
		h-4.8V77.892h4.212v3.24c0.657-1.075,1.568-1.974,2.652-2.616c1.165-0.65,2.482-0.977,3.816-0.948
		c1.219-0.013,2.425,0.249,3.527,0.768c1.065,0.492,2.021,1.194,2.809,2.064c0.801,0.918,1.428,1.976,1.848,3.12
		c0.439,1.208,0.662,2.483,0.66,3.768c0,1.332-0.223,2.654-0.66,3.912c-0.377,1.14-0.958,2.201-1.716,3.132
		c-0.711,0.872-1.599,1.584-2.604,2.088C978.66,96.901,977.543,97.139,976.416,97.116z M974.796,93.012
		c0.696,0.005,1.383-0.156,2.004-0.468c0.601-0.309,1.132-0.738,1.561-1.26c0.442-0.547,0.783-1.169,1.008-1.836
		c0.239-0.695,0.361-1.425,0.36-2.16c0.006-0.758-0.129-1.511-0.396-2.22c-0.251-0.657-0.625-1.26-1.104-1.776
		c-0.466-0.507-1.029-0.916-1.656-1.2c-0.649-0.291-1.354-0.438-2.064-0.432c-0.477,0.001-0.951,0.078-1.404,0.228
		c-0.475,0.156-0.924,0.382-1.332,0.672c-0.406,0.291-0.777,0.629-1.104,1.008c-0.311,0.356-0.558,0.762-0.732,1.2v4.428
		c0.412,1.051,1.096,1.975,1.98,2.676C972.713,92.578,973.732,92.981,974.796,93.012z"/>
	<path style="fill:#263238;" d="M995.064,97.116c-1.579,0-3.147-0.255-4.645-0.756c-1.426-0.456-2.747-1.19-3.888-2.16l1.8-3.024
		c1.039,0.753,2.168,1.375,3.36,1.848c1.039,0.412,2.146,0.627,3.264,0.636c0.784,0.038,1.563-0.15,2.244-0.54
		c0.535-0.329,0.852-0.92,0.828-1.548c0.016-0.647-0.372-1.236-0.973-1.476c-1.025-0.444-2.085-0.805-3.168-1.08
		c-1.224-0.336-2.268-0.66-3.132-0.972c-0.744-0.252-1.447-0.612-2.088-1.068c-0.511-0.346-0.924-0.817-1.2-1.368
		c-0.253-0.582-0.376-1.213-0.359-1.848c-0.017-0.895,0.173-1.781,0.552-2.592c0.391-0.772,0.953-1.446,1.644-1.968
		c0.718-0.547,1.532-0.954,2.4-1.2c0.951-0.296,1.943-0.441,2.94-0.432c1.348-0.01,2.689,0.197,3.972,0.612
		c1.248,0.413,2.398,1.074,3.384,1.944l-1.944,2.916c-0.87-0.663-1.832-1.197-2.855-1.584c-0.854-0.328-1.761-0.499-2.677-0.504
		c-0.717-0.025-1.428,0.149-2.052,0.504c-0.557,0.343-0.876,0.968-0.827,1.62c-0.014,0.288,0.053,0.575,0.191,0.828
		c0.161,0.242,0.38,0.439,0.636,0.576c0.359,0.198,0.737,0.358,1.128,0.48c0.469,0.156,1.057,0.324,1.752,0.492
		c1.297,0.336,2.4,0.672,3.324,1.008c0.81,0.291,1.573,0.694,2.269,1.2c0.547,0.382,0.992,0.894,1.296,1.488
		c0.293,0.639,0.437,1.337,0.42,2.04c0.066,1.703-0.699,3.332-2.052,4.368C998.986,96.68,997.034,97.229,995.064,97.116z"/>
	<path style="fill:#263238;" d="M1005.72,96.756v-5.184h3.96v5.184H1005.72z"/>
	<path style="fill:#263238;" d="M1013.82,96.756v-5.184h3.96v5.184H1013.82z"/>
	<path style="fill:#263238;" d="M1021.92,96.756v-5.184h3.96v5.184H1021.92z"/>
</g>
<g id="freepik--speech-bubble--inject-29">
	<path style="fill:#FFFFFF;" d="M1162.62,125.22c-2.743,26.087-26.114,45.012-52.202,42.27c-10.142-1.066-19.671-5.368-27.178-12.27
		l-23.772,3.492l11.893-20.556c-2.972-7.234-4.094-15.096-3.265-22.872c2.673-26.108,26.004-45.106,52.112-42.434
		s45.106,26.004,42.434,52.112c-0.007,0.07-0.015,0.14-0.021,0.21V125.22z"/>
	<path style="fill:#263238;" d="M1162.62,125.22c-0.927,8.757-4.248,17.09-9.601,24.084c-1.331,1.739-2.771,3.395-4.308,4.956
		c-1.585,1.516-3.26,2.935-5.016,4.248c-3.499,2.656-7.358,4.801-11.46,6.372c-4.095,1.629-8.396,2.679-12.78,3.12
		c-2.194,0.196-4.399,0.236-6.601,0.12c-2.206-0.054-4.405-0.282-6.575-0.684c-8.763-1.605-16.904-5.625-23.509-11.604l0.564,0.168
		l-23.736,3.6l-1.728,0.264l0.876-1.512l11.82-20.592v0.804c-5.65-13.804-4.573-29.449,2.916-42.348
		c3.688-6.322,8.759-11.729,14.832-15.816c12.326-8.164,27.711-10.237,41.76-5.628c6.868,2.321,13.129,6.151,18.324,11.208
		C1158.905,96.188,1164.146,110.652,1162.62,125.22z M1162.62,125.22c2.741-25.814-15.963-48.964-41.777-51.706
		c-4.009-0.426-8.057-0.334-12.043,0.273c-7.074,1.067-13.81,3.74-19.691,7.812c-5.802,4.084-10.649,9.377-14.208,15.516
		c-3.495,6.16-5.547,13.032-6,20.1c-0.441,7.063,0.703,14.136,3.348,20.7l0.168,0.42l-0.229,0.396l-12,20.508l-0.852-1.26
		l23.796-3.324h0.336l0.229,0.216c6.36,5.954,14.257,10.014,22.8,11.724c2.124,0.427,4.279,0.688,6.444,0.78
		c2.165,0.156,4.339,0.156,6.504,0c4.342-0.334,8.615-1.275,12.695-2.796c4.103-1.482,7.964-3.561,11.46-6.168
		c1.756-1.293,3.431-2.692,5.017-4.188c1.541-1.544,2.983-3.184,4.319-4.908C1158.328,142.333,1161.68,133.992,1162.62,125.22z"/>
	<path style="fill:#263238;" d="M1084.956,112.8c0.61,1.46,1.462,2.807,2.521,3.984c-0.156,3.264,2.111,6.276,4.355,8.4
		c2.665,2.456,5.698,4.48,8.988,6c5.475,2.464,11.26,4.172,17.195,5.076c-0.323,4.68-2.052,9.313-3.779,13.668
		c0,0.108,0.132,0.156,0.18,0c1.74-4.308,3.6-8.928,4.152-13.62c1.168,0.192,2.332,0.372,3.492,0.54
		c1.775,0.252,3.6,0.444,5.459,0.54c3.183,0.41,6.394,0.558,9.601,0.444c3.776,0.043,7.451-1.229,10.392-3.6
		c2.673-2.358,3.819-6.004,2.977-9.468c-0.37-1.531-0.947-3.005-1.717-4.38c-0.439-0.963-0.949-1.894-1.523-2.784
		c-1.975-2.861-4.427-5.361-7.248-7.392c-0.744-0.552-1.5-1.08-2.28-1.596c-0.096-0.096-0.191-0.204-0.3-0.3
		c-2.808-2.562-5.982-4.69-9.42-6.312c-7.149-3.486-14.968-5.385-22.92-5.568c-4.002-0.102-8.003,0.245-11.928,1.032
		c-3.433,0.708-6.792,2.112-8.4,5.46c-1.047,2.397-1.221,5.084-0.492,7.596C1084.399,111.305,1084.633,112.071,1084.956,112.8z
		 M1124.724,135.804c-2.016-0.288-4.031-0.648-6-1.092c0-0.24,0-0.48,0-0.732c0.444,0.072,0.9,0.132,1.345,0.18
		c0.443,0.048,0.815,0.072,1.199,0.084c3.734,0.621,7.522,0.854,11.305,0.696c3.377-0.143,6.73-0.633,10.008-1.464
		c-4.716,2.556-10.729,2.88-15.876,2.52c-0.636-0.012-1.308-0.084-1.98-0.156V135.804z M1112.484,101.352
		c1.056,0.192,2.1,0.42,3.132,0.66c-2.729,0.024-5.435,0.486-8.017,1.368c-2.826,0.914-5.327,2.626-7.199,4.932
		c-1.42,0.385-2.787,0.945-4.068,1.668c-0.3,0-0.588,0-0.888,0.096c-1.125,0.159-2.226,0.458-3.276,0.888c0-0.144,0-0.288,0-0.42
		c0-3.3,2.628-5.532,5.388-6.804c3.146-1.349,6.506-2.133,9.925-2.316c1.665-0.12,3.337-0.132,5.004-0.036V101.352z
		 M1093.116,116.328c0.312,0.42,0.647,0.828,0.996,1.2c-0.344,0.284-0.654,0.606-0.925,0.96
		C1093.051,117.776,1093.027,117.047,1093.116,116.328z M1118.052,133.908c0,0.228,0,0.456,0,0.684
		c-2.815-0.624-5.589-1.426-8.304-2.4c1.691,0.42,3.396,0.792,5.112,1.128C1115.928,133.512,1116.996,133.728,1118.052,133.908z
		 M1117.271,129.348c-7.265-1.438-14.271-3.962-20.783-7.488c-0.828-0.456-1.668-0.948-2.473-1.464
		c0.22-0.683,0.637-1.284,1.2-1.728c2.882,2.469,6.149,4.447,9.672,5.856c3.729,1.533,7.538,2.859,11.412,3.972
		c0.216,0.077,0.456,0.009,0.601-0.168c0.025,0.054,0.045,0.11,0.06,0.168C1117.104,128.772,1117.2,129.06,1117.271,129.348z
		 M1097.364,118.8c-0.328-0.256-0.652-0.52-0.972-0.792c1.436-0.454,2.97-0.495,4.428-0.12c3.442,0.599,6.775,1.711,9.888,3.3
		c2.504,1.348,4.522,3.446,5.772,6C1109.844,125.208,1102.98,123.06,1097.364,118.8z M1117.656,130.8
		c0.094,0.396,0.166,0.796,0.216,1.2h-0.06l-1.572-0.312l-2.185-0.624c-3.732-1.144-7.349-2.639-10.8-4.464
		c3.865,1.55,7.851,2.783,11.916,3.684C1116,130.512,1116.84,130.668,1117.656,130.8z M1118.52,130.956
		c2.196,0.396,4.416,0.684,6.648,0.888c-0.955,0.456-2.002,0.686-3.06,0.672c-1.16-0.004-2.317-0.117-3.456-0.336
		c-0.036-0.384-0.072-0.792-0.133-1.2V130.956z M1103.064,128.088l-0.54-0.204c-1.567-0.674-3.077-1.477-4.513-2.4l-1.319-0.828
		c-0.204-0.216-0.408-0.42-0.601-0.636l-0.348-0.432c2.334,1.673,4.779,3.185,7.32,4.524V128.088z M1093.536,114.744
		c0.577-1.36,1.547-2.517,2.784-3.324c1.073-0.096,2.154-0.096,3.228,0c0.289,0.773,0.798,1.445,1.464,1.932
		c1.466,1.155,3.005,2.213,4.608,3.168c5.849,3.501,12.349,5.776,19.104,6.684c1.062,1.274,1.82,2.771,2.221,4.38
		c0.257,1.053,0.102,2.165-0.433,3.108c-2.775-0.218-5.535-0.595-8.268-1.128c-0.108-0.42-0.216-0.852-0.36-1.272
		c-1.054-3.352-3.316-6.191-6.348-7.968c-3.212-1.791-6.688-3.062-10.296-3.768c-1.954-0.573-4.042-0.484-5.94,0.252l-0.12,0.072
		c-0.611-0.651-1.162-1.358-1.644-2.112V114.744z M1140.061,120.864c-0.562,0.453-1.225,0.762-1.933,0.9
		c-1.813-2.912-4.196-5.427-7.008-7.392c-5.522-4.158-12.116-6.656-19.008-7.2c-3.11-0.245-6.238-0.067-9.3,0.528l0.252-0.216
		c1.112-0.963,2.367-1.749,3.72-2.328c5.184-2.28,11.328-2.076,16.8-0.864l0.408,0.144c5.709,1.998,11.043,4.938,15.779,8.7
		l0.169,0.264c1.26,2.148,2.243,5.652,0.12,7.488V120.864z M1101.384,109.248c2.699-0.698,5.48-1.029,8.269-0.984
		c6.358,0.086,12.577,1.885,18,5.208c2.729,1.667,5.202,3.72,7.344,6.096c0.676,0.744,1.282,1.547,1.812,2.4l-1.62,0.132
		c-1.779,0.142-3.566,0.182-5.352,0.12c-1.368,0-2.724-0.156-4.068-0.312l-0.119-0.144c-4.549-5.496-11.448-8.4-18.145-10.332
		c-2.146-0.646-4.342-1.12-6.564-1.416c0.115-0.267,0.265-0.517,0.444-0.744V109.248z M1102.896,111.816
		c3.371,0.686,6.67,1.69,9.852,3c3.078,1.198,5.959,2.852,8.544,4.908c0.708,0.584,1.385,1.205,2.028,1.86
		c-4.713-0.792-9.281-2.276-13.561-4.404c-1.526-0.767-3.013-1.612-4.452-2.532c-0.8-0.504-1.567-1.032-2.304-1.584
		c-0.682-0.405-1.307-0.897-1.859-1.464c0.588,0,1.176,0.132,1.752,0.24V111.816z M1137.024,128.616
		c-1.801,2.016-5.028,2.232-7.549,2.172h-1.092c0.996-2.4-0.071-5.136-1.523-7.332l0,0c3.518,0.392,7.07,0.328,10.571-0.192
		c0.984,1.709,0.822,3.846-0.407,5.388V128.616z M1092.84,113.448c-0.143-0.323-0.263-0.656-0.359-0.996
		c0.49-0.224,0.995-0.412,1.512-0.564c-0.182,0.183-0.354,0.375-0.516,0.576C1093.233,112.771,1093.021,113.101,1092.84,113.448z
		 M1146.072,130.968c-0.808,0.346-1.643,0.623-2.496,0.828c-3.187,0.915-6.461,1.485-9.769,1.704
		c-2.634,0.176-5.277,0.148-7.907-0.084c0.654-0.33,1.231-0.796,1.691-1.368h0.12c2.964,0.168,6.384,0.216,8.976-1.476
		c1.287-0.816,2.194-2.112,2.521-3.6c0.243-1.364,0.067-2.77-0.504-4.032c1.353-0.293,2.522-1.137,3.228-2.328
		c0.61-1.233,0.809-2.63,0.564-3.984c-0.078-0.483-0.189-0.96-0.336-1.428c2.182,1.851,4.028,4.063,5.46,6.54
		c0.896,1.539,1.212,3.348,0.888,5.1c-0.373,1.493-1.149,2.854-2.244,3.936L1146.072,130.968z M1091.52,118.62
		c-0.879-0.779-1.712-1.609-2.495-2.484c0.32-1.303,1.156-2.42,2.315-3.096c0.232,0.662,0.526,1.3,0.876,1.908
		c-0.385,1.339-0.43,2.754-0.132,4.116L1091.52,118.62z M1086.108,111.6c-0.668-1.828-0.591-3.845,0.216-5.616
		c1.476-2.803,4.108-4.817,7.2-5.508c3.6-0.96,7.5-0.612,11.195-0.24l0.576,0.072c-2.81,0.345-5.555,1.097-8.147,2.232
		c-2.904,1.308-5.641,3.6-6.156,6.864c-0.103,0.708-0.103,1.428,0,2.136c-1.354,0.711-2.434,1.851-3.072,3.24
		C1087.182,113.802,1086.573,112.733,1086.108,111.6z M1128.708,103.86c-3.073-1.283-6.265-2.263-9.528-2.928
		c-1.882-0.38-3.785-0.645-5.699-0.792c-2.064-0.424-4.129-0.772-6.192-1.044c-6.984-0.912-15.937-1.944-20.964,4.188
		c-0.168,0.204-0.3,0.42-0.444,0.624c0.256-0.658,0.603-1.276,1.032-1.836c1.111-1.293,2.581-2.229,4.224-2.688
		c3.511-1.02,7.145-1.553,10.8-1.584c7.344-0.246,14.659,1.003,21.504,3.672C1125.24,102.168,1126.998,102.965,1128.708,103.86z
		 M1139.364,136.452l-0.601,0.072c1.958-0.541,3.831-1.348,5.568-2.4c0.904-0.564,1.749-1.22,2.52-1.956
		c0.507-0.238,0.977-0.55,1.393-0.924c0.078-0.074,0.15-0.155,0.216-0.24c-0.144,0.281-0.304,0.554-0.479,0.816
		C1146,134.652,1142.676,135.984,1139.364,136.452z M1090.164,120.972c-0.46-0.748-0.815-1.556-1.056-2.4
		c0.899,0.811,1.849,1.564,2.844,2.256l0.192,0.156l0,0c-0.002,1.474,0.658,2.871,1.8,3.804c1.421,1.275,2.992,2.371,4.68,3.264
		c0.6,0.432,1.2,0.852,1.86,1.2s1.548,0.888,2.399,1.308c-1.903-0.816-3.741-1.779-5.496-2.88c-2.871-1.669-5.332-3.962-7.2-6.708
		H1090.164z"/>
</g>
</svg>
