<svg viewBox="0 0 28 28" xmlns="http://www.w3.org/2000/svg" xmlns:xlink="http://www.w3.org/1999/xlink" class="jsx-3943970308 product-icon"><defs><path id="cpanel_svg__a" d="M.782.368h25.952v17.378H.782z"></path><path id="cpanel_svg__c" d="M0 .155h27.517v8.69H0z"></path></defs><g fill="none" fill-rule="evenodd"><g transform="translate(0 .616)"><mask id="cpanel_svg__b" fill="#fff"><use xlink:href="#cpanel_svg__a"></use></mask><path d="M9.754 17.746l4.28-16.032c.116-.406.333-.732.652-.978.318-.246.688-.37 1.107-.37h4.54c1.044 0 2.002.229 2.88.686a6.503 6.503 0 012.183 1.813c.582.76.99 1.64 1.194 2.575.218.963.189 1.952-.087 2.965l-.086.326a6.545 6.545 0 01-.869 1.922 6.32 6.32 0 01-1.401 1.51 6.356 6.356 0 01-3.9 1.326h-3.933l.782-2.933c.116-.391.334-.71.652-.956.318-.247.688-.37 1.108-.37h1.26c.522 0 .989-.159 1.402-.477a2.22 2.22 0 00.815-1.239 2.13 2.13 0 00.033-1.064 2.423 2.423 0 00-.425-.924 2.3 2.3 0 00-1.825-.9h-2.432L14.512 16.42c-.116.391-.333.71-.652.956a1.732 1.732 0 01-1.086.369h-3.02zm-2.476-13.1h4.91l-.761 2.912a1.84 1.84 0 01-.652.978 1.763 1.763 0 01-1.107.368H7.386c-.521 0-.981.152-1.38.457-.397.304-.676.717-.835 1.238a2.3 2.3 0 00-.033 1.108c.08.348.22.655.424.924.202.267.463.481.781.64.32.16.667.24 1.043.24h1.39c.262 0 .475.104.641.314.167.21.214.446.142.706l-.87 3.215H7.17c-1.042 0-2.002-.227-2.879-.684a6.502 6.502 0 01-2.183-1.814 6.391 6.391 0 01-1.184-2.574C.713 11.71.738 10.722 1 9.708l.087-.325a6.363 6.363 0 01.88-1.923 6.335 6.335 0 013.226-2.465 6.297 6.297 0 012.086-.348z" fill="#FE9801" mask="url(#cpanel_svg__b)"></path></g><g transform="translate(0 19.288)"><mask id="cpanel_svg__d" fill="#fff"><use xlink:href="#cpanel_svg__c"></use></mask><path d="M2.172 1.603c-.4 0-.724.325-.724.725v4.344c0 .4.324.725.724.725h23.173c.4 0 .724-.326.724-.725V2.328c0-.4-.324-.725-.724-.725H2.172zm23.173 7.241H2.172A2.174 2.174 0 010 6.672V2.328C0 1.13.974.155 2.172.155h23.173c1.197 0 2.173.976 2.173 2.173v4.344a2.175 2.175 0 01-2.173 2.172z" fill="#FE9801" mask="url(#cpanel_svg__d)"></path></g><path d="M4.345 23.064a.723.723 0 11.001 1.447.723.723 0 01-.001-1.447M6.517 23.064a.723.723 0 11.002 1.447.723.723 0 01-.002-1.447M8.69 23.064a.723.723 0 11.001 1.447.723.723 0 01-.001-1.447M23.173 24.512h-4.345a.724.724 0 010-1.448h4.345a.723.723 0 010 1.449" fill="#FE9801"></path></g></svg>