<?xml version="1.0"?>
<svg xmlns="http://www.w3.org/2000/svg" xmlns:xlink="http://www.w3.org/1999/xlink" xmlns:svgjs="http://svgjs.com/svgjs" version="1.1" width="512" height="512" x="0" y="0" viewBox="0 0 24 24" style="enable-background:new 0 0 512 512" xml:space="preserve"><g><path xmlns="http://www.w3.org/2000/svg" d="m9 1.5v5h-3v-5c0-.83.67-1.5 1.5-1.5s1.5.67 1.5 1.5z" fill="#0b0c1b" data-original="#000000" style=""/><path xmlns="http://www.w3.org/2000/svg" d="m18 1.5v5h-3v-5c0-.83.67-1.5 1.5-1.5s1.5.67 1.5 1.5z" fill="#0b0c1b" data-original="#000000" style=""/><path xmlns="http://www.w3.org/2000/svg" d="m12.25 19h-.5c-4.825 0-8.75-3.925-8.75-8.75v-.5c0-.965.785-1.75 1.75-1.75h14.5c.965 0 1.75.785 1.75 1.75v.5c0 4.825-3.925 8.75-8.75 8.75z" fill="#0b0c1b" data-original="#000000" style=""/><path xmlns="http://www.w3.org/2000/svg" d="m15 24c-.553 0-1-.448-1-1 0-.276-.225-.5-.5-.5-1.379 0-2.5-1.122-2.5-2.5v-2c0-.552.447-1 1-1s1 .448 1 1v2c0 .276.225.5.5.5 1.379 0 2.5 1.122 2.5 2.5 0 .552-.447 1-1 1z" fill="#0b0c1b" data-original="#000000" style=""/></g></svg>
