<svg xmlns="http://www.w3.org/2000/svg" version="1.1" xmlns:xlink="http://www.w3.org/1999/xlink" xmlns:svgjs="http://svgjs.com/svgjs" width="512" height="512" x="0" y="0" viewBox="0 0 8.4666665 8.4666669" style="enable-background:new 0 0 512 512" xml:space="preserve" class=""><g><g xmlns="http://www.w3.org/2000/svg" id="layer1" transform="translate(0 -288.533)"><path id="path825" d="m15.988281.98242188a1.0001001 1.0001001 0 0 0 -.101562.00585937 1.0001001 1.0001001 0 0 0 -.886719 1.01171875v9.099609c-2.276123.466255-4.001946 2.495679-4.001953 4.904297.000007 2.408618 1.72583 4.431639 4.001953 4.896485v9.099609a1.0002461 1.0002461 0 1 0 2 0v-9.101562h.001953c2.273685-.467864 3.999993-2.488659 4-4.894532-.000007-2.405872-1.728268-4.433062-4.001953-4.902344v-9.101562a1.0001001 1.0001001 0 0 0 -1.011719-1.01757812zm10.003907 0a1.0001001 1.0001001 0 0 0 -.103516.00585937 1.0001001 1.0001001 0 0 0 -.886719 1.01171875v19.101562c-2.276123.464853-3.999992 2.487867-4 4.896485.000009 2.749568 2.246521 5.005859 4.996094 5.005859s4.998038-2.256291 4.998047-5.005859c-.000008-2.405873-1.719915-4.426661-3.992188-4.894531v-19.103516a1.0001001 1.0001001 0 0 0 -1.011718-1.01757812zm-19.9902349.02148432c-2.7495729 0-5.00585081 2.2484784-5.00585935 4.9980469.00000748 2.4065334 1.72734265 4.4273859 4.00195315 4.8945309v19.103516a1.0002461 1.0002461 0 1 0 2 0v-19.101562c2.2761232-.464853 3.9999931-2.487867 4.0000001-4.8964849-.000008-2.7495685-2.2465208-4.9980469-4.9960939-4.9980469z" fill-rule="evenodd" transform="matrix(.265 0 0 .265 0 288.533)" font-variant-ligatures="normal" font-variant-position="normal" font-variant-caps="normal" font-variant-numeric="normal" font-variant-alternates="normal" font-feature-settings="normal" text-indent="0" text-align="start" text-decoration-line="none" text-decoration-style="solid" text-decoration-color="rgb(0,0,0)" text-transform="none" text-orientation="mixed" white-space="normal" shape-padding="0" isolation="auto" mix-blend-mode="normal" solid-color="rgb(0,0,0)" solid-opacity="1" vector-effect="none" paint-order="stroke fill markers" fill="#0b0c1b" data-original="#000000" class=""></path></g></g></svg>