<?xml version="1.0"?>
<svg xmlns="http://www.w3.org/2000/svg" xmlns:xlink="http://www.w3.org/1999/xlink" xmlns:svgjs="http://svgjs.com/svgjs" version="1.1" width="512" height="512" x="0" y="0" viewBox="0 0 942 942" style="enable-background:new 0 0 512 512" xml:space="preserve"><g>
<g xmlns="http://www.w3.org/2000/svg">
	<g>
		<path d="M579.1,894c0,26.5,21.5,48,48,48s48-21.5,48-48v-77.5H579.2V894H579.1z" fill="#0b0c1b" data-original="#000000" style=""/>
		<path d="M579.1,48v77.5H675V48c0-26.5-21.5-48-48-48S579.1,21.5,579.1,48z" fill="#0b0c1b" data-original="#000000" style=""/>
		<path d="M423,48v77.5h96V48c0-26.5-21.5-48-48-48S423,21.5,423,48z" fill="#0b0c1b" data-original="#000000" style=""/>
		<path d="M423,894c0,26.5,21.5,48,48,48s48-21.5,48-48v-77.5h-96V894z" fill="#0b0c1b" data-original="#000000" style=""/>
		<path d="M267,48v77.5h95.9V48c0-26.5-21.5-48-48-48S267,21.5,267,48z" fill="#0b0c1b" data-original="#000000" style=""/>
		<path d="M267,894c0,26.5,21.5,48,48,48s48-21.5,48-48v-77.5h-96V894z" fill="#0b0c1b" data-original="#000000" style=""/>
		<path d="M0,627c0,26.5,21.5,48,48,48h77.5v-95.9H48C21.5,579.1,0,600.5,0,627z" fill="#0b0c1b" data-original="#000000" style=""/>
		<path d="M894,579.1h-77.5V675H894c26.5,0,48-21.5,48-48S920.5,579.1,894,579.1z" fill="#0b0c1b" data-original="#000000" style=""/>
		<path d="M0,471c0,26.5,21.5,48,48,48h77.5v-96H48C21.5,423,0,444.5,0,471z" fill="#0b0c1b" data-original="#000000" style=""/>
		<path d="M894,423h-77.5v96H894c26.5,0,48-21.5,48-48S920.5,423,894,423z" fill="#0b0c1b" data-original="#000000" style=""/>
		<path d="M0,315c0,26.5,21.5,48,48,48h77.5v-96H48C21.5,267,0,288.5,0,315z" fill="#0b0c1b" data-original="#000000" style=""/>
		<path d="M894,267h-77.5v95.9H894c26.5,0,48-21.5,48-48S920.5,267,894,267z" fill="#0b0c1b" data-original="#000000" style=""/>
		<path d="M171.6,720.4c0,27.6,22.4,50,50,50h498.8c27.6,0,50-22.4,50-50V221.6c0-27.6-22.4-50-50-50H221.6c-27.6,0-50,22.4-50,50    V720.4z" fill="#0b0c1b" data-original="#000000" style=""/>
	</g>
</g>
<g xmlns="http://www.w3.org/2000/svg">
</g>
<g xmlns="http://www.w3.org/2000/svg">
</g>
<g xmlns="http://www.w3.org/2000/svg">
</g>
<g xmlns="http://www.w3.org/2000/svg">
</g>
<g xmlns="http://www.w3.org/2000/svg">
</g>
<g xmlns="http://www.w3.org/2000/svg">
</g>
<g xmlns="http://www.w3.org/2000/svg">
</g>
<g xmlns="http://www.w3.org/2000/svg">
</g>
<g xmlns="http://www.w3.org/2000/svg">
</g>
<g xmlns="http://www.w3.org/2000/svg">
</g>
<g xmlns="http://www.w3.org/2000/svg">
</g>
<g xmlns="http://www.w3.org/2000/svg">
</g>
<g xmlns="http://www.w3.org/2000/svg">
</g>
<g xmlns="http://www.w3.org/2000/svg">
</g>
<g xmlns="http://www.w3.org/2000/svg">
</g>
</g></svg>
