<svg id="Capa_1" enable-background="new 0 0 512 512" height="512" viewBox="0 0 512 512" width="512" xmlns="http://www.w3.org/2000/svg" xmlns:xlink="http://www.w3.org/1999/xlink"><linearGradient id="SVGID_1_" gradientUnits="userSpaceOnUse" x1="256" x2="256" y1="452" y2="270"><stop offset="0" stop-color="#ffe59a"/><stop offset="1" stop-color="#ffffd5"/></linearGradient><linearGradient id="SVGID_2_" gradientUnits="userSpaceOnUse" x1="256" x2="256" y1="512" y2="0"><stop offset="0" stop-color="#fd5900"/><stop offset="1" stop-color="#ffde00"/></linearGradient><g><g><g><path d="m256 270c-8.291 0-15 6.709-15 15v152c0 8.291 6.709 15 15 15s15-6.709 15-15v-152c0-8.291-6.709-15-15-15zm-90 0c-8.291 0-15 6.709-15 15v47h-45c-8.291 0-15 6.709-15 15v60c0 8.291 6.709 15 15 15s15-6.709 15-15v-45h45c8.291 0 15-6.709 15-15v-62c0-8.291-6.709-15-15-15zm240 62h-45v-47c0-8.291-6.709-15-15-15s-15 6.709-15 15v62c0 8.291 6.709 15 15 15h45v45c0 8.291 6.709 15 15 15s15-6.709 15-15v-60c0-8.291-6.709-15-15-15z" fill="url(#SVGID_1_)"/></g></g><g><g><path d="m421 120c0-66.167-53.818-120-120-120-31.699 0-61.934 12.803-84.463 35.435-67.529-21.114-137.365 21.15-152.227 88.74-37.265 11.499-64.31 46.054-64.31 85.825 0 49.629 41.371 90 91 90h330c49.629 0 91-40.371 91-90s-41.371-90-91-90zm-165 302c-24.814 0-45 20.186-45 45s20.186 45 45 45 45-20.186 45-45-20.186-45-45-45zm-150-30c-24.814 0-45 20.186-45 45s20.186 45 45 45 45-20.186 45-45-20.186-45-45-45zm300 0c-24.814 0-45 20.186-45 45s20.186 45 45 45 45-20.186 45-45-20.186-45-45-45z" fill="url(#SVGID_2_)"/></g></g></g></svg>