<?xml version="1.0" encoding="iso-8859-1"?>
<!-- Generator: Adobe Illustrator 19.0.0, SVG Export Plug-In . SVG Version: 6.00 Build 0)  -->
<svg version="1.1" id="Layer_1" xmlns="http://www.w3.org/2000/svg" xmlns:xlink="http://www.w3.org/1999/xlink" x="0px" y="0px"
	 viewBox="0 0 499.208 499.208" style="enable-background:new 0 0 499.208 499.208;" xml:space="preserve">
<path style="fill:#40E269;" d="M83.149,97.6h0.032h46.664c2.672,0,6.576-2.656,6.576-5.304c0-0.016,1.176-40.624,1.176-51.8v-0.128
	c0-9.168,0.168-17.168,3.504-23.872l0.712-2.992c-0.168,0.024-0.784,0.112-0.952,0.28l-90.872,90.272
	c-0.176,0.144-0.416,0.344-0.464,0.536c1.872-0.944,4.4-1.744,4.752-1.912C62.157,99.096,71.685,97.6,83.149,97.6z"/>
<path style="fill:#46D16A;" d="M420.085,53.264c-11.504-4.176-34.832-8.496-64.152-11.984c-23.6-2.776-51.312-2.56-68.064-2.048
	c-2-13.816-11.656-26.432-22.472-30.8c-28.784-11.64-73.272-8.832-84.672-5.624c-9.064,2.544-19.12,7.776-24.712,15.808
	c-3.744,5.376-6.168,12.264-6.184,21.864c0,5.448,0.152,18.248,0.28,29.656c0.136,11.4,0.288,23.272,0.288,23.352
	c0,10.168-8.224,20.112-18.4,20.112H85.333c-9.96,0-17.56,0.032-23.368,2.664c-5.832,2.664-9.952,5.424-13.088,9.64
	c-6.224,8.408-7.304,18.36-7.272,28.936c0,0,0.112,8.456,2.176,25.176c1.72,12.944,15.704,103.304,28.984,130.808
	c5.16,10.688,8.576,15.104,18.696,19.816c22.544,9.704,74.056,20.464,98.184,23.552c24.096,3.088,39.208,9.576,48.232-9.392
	c0.032-0.04,1.8-4.44,4.224-11.288c7.856-23.8,8.944-43.912,8.944-59.912h2.272c0,8-2.056,48.672,26.672,58.92
	c11.344,4.04,34.864,7.488,58.768,10.312c21.608,2.496,37.312,10.952,37.312,66.632c0,33.864-7.096,38.488-44.136,38.488
	c-30.04,0-41.504,0.76-41.504-23.184c0-19.352,19.104-17.336,33.216-17.336c6.32,0,1.744-4.72,1.744-16.664
	c0-11.888,7.4-18.752,0.4-18.92c-48.872-1.36-77.632-0.072-77.632,61.304c0,55.72,21.224,66.056,90.592,66.056
	c54.4,0,73.576-1.792,96.016-71.744c4.456-13.816,15.216-55.96,21.704-126.728c4.128-44.736-3.872-179.792-10.2-213.872
	C442.541,66.936,430.757,57.12,420.085,53.264z M351.445,236.12c-6.712-0.232-13.168,0.184-19.2,1.16
	c1.688-13.744,7.344-30.624,27.376-29.92c22.168,0.776,25.288,21.816,25.368,36.056C375.637,239.232,364.053,236.584,351.445,236.12
	z"/>
<path style="fill:#38BC5F;" d="M404.565,90.176c-11.504-4.184-19.32-45.408-48.632-48.888c-23.6-2.776-51.312-2.56-68.064-2.048
	c-2-13.816-11.656-26.432-22.472-30.8c-28.784-11.64-73.272-8.832-84.672-5.624c-9.064,2.536-19.12,7.768-24.712,15.8
	c-3.744,5.376-6.168,12.264-6.184,21.864c0,5.448,0.152,18.248,0.28,29.656c0.136,11.4,0.288,23.272,0.288,23.352
	c0,10.168-8.224,20.112-18.4,20.112H85.333c-9.96,0-17.56,0.032-23.368,2.664c-5.832,2.664-9.952,5.424-13.088,9.64
	c-6.224,8.408-7.304,18.36-7.272,28.936c0,0,0.112,8.456,2.176,25.176c1.72,12.944,15.704,103.304,28.984,130.808
	c5.16,10.688,8.576,15.104,18.696,19.816c22.544,9.704,74.056,20.464,98.184,23.552c24.096,3.088,39.208,9.576,48.232-9.392
	c0.032-0.04,1.8-4.44,4.224-11.288c7.856-23.8,8.944-43.912,8.944-59.912h2.272c0,8-2.056,48.672,26.672,58.92
	c11.344,4.04,34.864,7.488,58.768,10.312c21.608,2.496,37.312,10.952,37.312,66.632c0,33.864-7.096,38.488-44.136,38.488
	c-30.04,0-41.504,0.76-41.504-23.184c0-19.352,19.104-17.336,33.216-17.336c6.32,0,1.744-4.72,1.744-16.664
	c0-11.888,7.4-18.752,0.4-18.92c-48.872-1.36-77.632-0.072-77.632,61.304c0,55.72,21.224,66.056,90.592,66.056
	c54.4,0,73.576-1.792,96.016-71.744c4.456-13.816,15.216-55.96,21.704-126.728c4.128-44.736-19.392-142.88-25.728-176.96
	C427.021,103.832,415.229,94.024,404.565,90.176z M351.445,236.12c-6.712-0.232-13.168,0.184-19.2,1.16
	c1.688-13.744,7.344-30.624,27.376-29.92c22.168,0.776,25.288,21.816,25.368,36.056C375.637,239.232,364.053,236.584,351.445,236.12
	z"/>
<g>
	<path style="fill:#30AA6F;" d="M289.045,54.864c-0.544-5.792-0.4-10.928,0.12-15.664c-0.416,0.016-0.896,0.024-1.288,0.032
		c-2-13.816-11.656-26.432-22.472-30.8c-28.784-11.64-73.272-8.832-84.672-5.624c-9.072,2.544-19.128,7.776-24.72,15.808
		c-3.744,5.376-6.168,12.264-6.184,21.864c0,5.448,0.152,18.248,0.28,29.656c0.136,11.4,0.288,23.272,0.288,23.352
		c0,10.168-8.224,20.112-18.4,20.112H85.333c-9.96,0-17.56,0.032-23.368,2.664c-5.832,2.664-9.952,5.424-13.088,9.64
		c-6.224,8.408-7.304,18.36-7.272,28.936c0,0,0.112,8.456,2.176,25.176c1.72,12.944,15.704,103.304,28.984,130.808
		c5.16,10.688,8.576,15.104,18.696,19.816c22.544,9.704,74.056,20.464,98.184,23.552c24.096,3.088,39.208,9.576,48.232-9.392
		c0.032-0.04,1.8-4.728,4.224-11.576c3.84-11.648,6.048-22.64,7.304-32.64l1.624-27.568c0,0,0.312-102.464,35.408-138.856
		C321.549,97.76,292.933,96.464,289.045,54.864z"/>
	<path style="fill:#30AA6F;" d="M285.141,167.96c-61.04,0-75.4,72.696-75.4,176.8c0,4.2,0.144,8.344,0.336,12.464
		c12.704,1.576,21.672,0.488,27.808-12.432c0.032-0.04,1.8-4.432,4.224-11.288c7.848-23.792,8.936-43.904,8.936-59.904h2.272
		c0,8-2.056,48.672,26.672,58.92c11.344,4.04,34.864,7.488,58.768,10.312c21.608,2.496,37.312,10.952,37.312,66.632
		c0,33.864-7.096,38.488-44.136,38.488c-30.04,0-41.504,0.76-41.504-23.184c0-19.352,19.104-17.336,33.216-17.336
		c6.32,0,1.744-4.72,1.744-16.664c0-11.888,7.4-18.752,0.4-18.92c-48.872-1.36-77.632-0.072-77.632,61.304
		c0,55.72,21.224,66.056,90.592,66.056c54.4,0,73.576-1.792,96.016-71.744c1.456-4.456,3.536-11.904,5.928-22.264
		c3.992-19.712,6.016-40.92,5.632-63.04C443.749,193.96,346.149,167.96,285.141,167.96z M351.445,236.12
		c-6.712-0.232-13.168,0.184-19.2,1.16c1.688-13.744,7.344-30.624,27.376-29.92c22.168,0.776,25.288,21.816,25.368,36.056
		C375.637,239.232,364.053,236.584,351.445,236.12z"/>
</g>
<g>
</g>
<g>
</g>
<g>
</g>
<g>
</g>
<g>
</g>
<g>
</g>
<g>
</g>
<g>
</g>
<g>
</g>
<g>
</g>
<g>
</g>
<g>
</g>
<g>
</g>
<g>
</g>
<g>
</g>
</svg>
