<svg id="Group_1" data-name="Group 1" xmlns="http://www.w3.org/2000/svg" width="17.64" height="18" viewBox="0 0 17.64 18">
  <path id="Path_1" data-name="Path 1" d="M17.64,9.2a10.348,10.348,0,0,0-.164-1.841H9v3.481h4.844a4.14,4.14,0,0,1-1.8,2.716v2.258h2.909A8.777,8.777,0,0,0,17.64,9.2Z" transform="translate(0 0)" fill="#4285f4" fill-rule="evenodd"/>
  <path id="Path_2" data-name="Path 2" d="M9,18a8.593,8.593,0,0,0,5.956-2.181l-2.909-2.258A5.43,5.43,0,0,1,3.964,10.71H.957v2.332A9,9,0,0,0,9,18Z" transform="translate(0 0)" fill="#34a853" fill-rule="evenodd"/>
  <path id="Path_3" data-name="Path 3" d="M3.964,10.71a5.321,5.321,0,0,1,0-3.42V4.958H.957a9.011,9.011,0,0,0,0,8.084Z" transform="translate(0 0)" fill="#fbbc05" fill-rule="evenodd"/>
  <path id="Path_4" data-name="Path 4" d="M9,3.579a4.862,4.862,0,0,1,3.441,1.346l2.581-2.581A8.649,8.649,0,0,0,9,0,9,9,0,0,0,.957,4.958L3.964,7.29A5.364,5.364,0,0,1,9,3.579Z" transform="translate(0 0)" fill="#ea4335" fill-rule="evenodd"/>
</svg>