<svg id="Capa_1" enable-background="new 0 0 512 512" height="512" viewBox="0 0 512 512" width="512" xmlns="http://www.w3.org/2000/svg" xmlns:xlink="http://www.w3.org/1999/xlink"><linearGradient id="SVGID_1_" gradientUnits="userSpaceOnUse" x1="256" x2="256" y1="421" y2="61"><stop offset="0" stop-color="#a93aff"/><stop offset="1" stop-color="#ff81ff"/></linearGradient><linearGradient id="SVGID_2_" gradientUnits="userSpaceOnUse" x1="256" x2="256" y1="451" y2="151"><stop offset="0" stop-color="#ffbef9"/><stop offset="1" stop-color="#fff1ff"/></linearGradient><g><g><g><path d="m437 61h-362c-24.814 0-45 20.186-45 45v270c0 8.291 6.709 15 15 15h114.789l25.605 25.605c2.813 2.813 6.622 4.395 10.606 4.395h120c3.984 0 7.793-1.582 10.605-4.395l25.606-25.605h114.789c8.291 0 15-6.709 15-15v-270c0-24.814-20.186-45-45-45z" fill="url(#SVGID_1_)"/></g></g><g><g><path d="m160.463 219.774c24.551-24.638 59.385-38.774 95.537-38.774s70.986 14.136 95.537 38.774c5.937 5.908 15.4 5.84 21.24.029 5.859-5.845 5.859-15.352.029-21.211-30.175-30.248-72.743-47.592-116.806-47.592s-86.631 17.344-116.807 47.593c-5.83 5.859-5.83 15.366.029 21.211 5.86 5.83 15.382 5.859 21.241-.03zm169.834 42.393c5.859-5.845 5.859-15.352.029-21.211-19.014-19.043-46.084-29.971-74.326-29.971s-55.313 10.928-74.326 29.971c-5.83 5.859-5.83 15.366.029 21.211 5.859 5.83 15.322 5.859 21.24-.029 26.777-26.865 79.336-26.865 106.113 0 5.938 5.907 15.401 5.84 21.241.029zm-106.143 22.031c-5.83 5.859-5.83 15.366.029 21.211 5.859 5.83 15.381 5.859 21.24-.029 5.625-5.654 15.527-5.654 21.152 0 5.798 5.827 15.32 5.919 21.24.029 5.859-5.845 5.859-15.352.029-21.211-16.99-17.021-46.698-17.021-63.69 0zm272.846 76.802h-144.787c-3.978 0-7.793 1.58-10.606 4.393l-21.213 21.213c-2.813 2.813-6.628 4.394-10.606 4.394h-107.575c-3.978 0-7.793-1.58-10.606-4.394l-21.213-21.213c-2.813-2.813-6.628-4.393-10.606-4.393h-144.788c-8.284 0-15 6.716-15 15v15c0 33.137 26.863 60 60 60h392c33.137 0 60-26.863 60-60v-15c0-8.284-6.716-15-15-15z" fill="url(#SVGID_2_)"/></g></g></g></svg>