<?xml version="1.0"?>
<svg xmlns="http://www.w3.org/2000/svg" xmlns:xlink="http://www.w3.org/1999/xlink" version="1.1" id="Capa_1" x="0px" y="0px" viewBox="0 0 511.997 511.997" style="enable-background:new 0 0 511.997 511.997;" xml:space="preserve" width="512px" height="512px" class=""><g><g>
	<g>
		<path d="M504.901,297.474c-7.174-10.024-19.126-16.76-31.189-17.58c-9.847-0.663-18.77,2.662-25.118,9.382    c-1.393,1.474-2.896,3.093-4.486,4.827c-7.023-6.434-16.226-10.574-25.504-11.204c-9.851-0.66-18.771,2.663-25.118,9.382    c-13.817,14.626-38.283,43.198-57.497,65.944c-2.506-1.482-5.187-2.704-8.023-3.621c-9.184-3.955-135.787-58.024-191.905-58.024    c-90.651,0-132.297,48.725-134.025,50.798c-2.651,3.182-2.221,7.901,0.952,10.561c3.174,2.661,7.91,2.244,10.58-0.922    c0.096-0.113,9.825-11.505,29.697-22.73c18.316-10.344,49.284-22.678,92.795-22.678c53.914,0,184.973,56.372,186.291,56.941    c2.409,1.039,4.894,1.834,7.094,3.302c2.077,1.386,3.936,3.097,5.494,5.048c3.026,3.791,4.921,8.481,5.319,13.319    c0.837,10.136-4.852,19.929-14.035,24.258c-5.791,2.73-11.913,2.812-17.997,1.145l-81.996-22.583    c-3.948-1.088-8.154,1.303-9.241,5.249c-1.087,3.948,1.302,8.153,5.249,9.24l81.882,22.552c9.949,3.069,20.821,2.065,30.039-2.769    c9.363-4.909,16.254-13.172,19.402-23.263c1.028-3.292,1.608-6.651,1.765-10.008l21.992-2.316    c1.946-0.205,3.736-1.161,4.989-2.665c0.542-0.651,54.467-65.388,77.213-89.464c9.454-10.012,26.334-2.915,33.161,6.623    c10.498,14.667-2.548,30.678-6.796,35.237c-20.876,22.398-59.157,68.545-66.038,76.863l-155.803,77.901l-80.161-33.752    c-3.774-1.589-8.253,0.234-9.842,4.01c-1.589,3.774,0.235,8.252,4.009,9.841l83.348,35.093c2.004,0.845,4.333,0.768,6.277-0.204    l160.315-80.158c0.938-0.469,1.767-1.129,2.435-1.939c0.44-0.533,44.259-53.593,66.456-77.41    C513.219,334.173,516.295,313.391,504.901,297.474z M372.713,377.099l-19.581,2.062c-1.388-3.93-3.39-7.623-5.914-10.938    c16.367-19.374,42.963-50.556,57.192-65.618c4.111-4.353,9.431-4.969,13.173-4.708c5.891,0.401,11.932,3.18,16.475,7.383    C411.512,330.732,380.817,367.392,372.713,377.099z" data-original="#000000" class="active-path" data-old_color="#000000" fill="#FFFFFF"/>
	</g>
</g><g>
	<g>
		<path d="M146.989,446.938l-32.061-13.5c-0.923-0.389-1.915-0.589-2.917-0.589H7.806c-4.15,0-7.515,3.364-7.515,7.515    c0,4.151,3.365,7.515,7.515,7.515h102.687l30.662,12.91c4.034,1.699,8.762-0.509,10.083-4.667    C152.398,452.472,150.515,448.422,146.989,446.938z" data-original="#000000" class="active-path" data-old_color="#000000" fill="#FFFFFF"/>
	</g>
</g><g>
	<g>
		<path d="M399.517,250.567l-31.999,4.572c26.021-27.879,40.576-64.402,40.576-103.341C408.094,68.097,339.997,0,256.296,0    c-83.702,0-151.798,68.097-151.798,151.798c0,33.585,10.746,65.412,31.076,92.038c19.676,25.77,47.577,44.886,78.565,53.827    c4.099,1.181,8.451-1.397,9.407-5.545c0.885-3.835-1.465-7.805-5.241-8.896c-58.159-16.78-98.778-70.825-98.778-131.425    c0-75.415,61.355-136.769,136.769-136.769c75.415,0,136.769,61.354,136.769,136.769c0,37.281-14.8,72.111-41.081,97.745v-39.631    c0-4.151-3.364-7.515-7.515-7.515c-4.151,0-7.515,3.364-7.515,7.515v56.11c0,4.493,4.126,8.079,8.578,7.44l56.11-8.016    c4.054-0.579,6.957-4.448,6.377-8.502C407.44,252.893,403.566,249.994,399.517,250.567z" data-original="#000000" class="active-path" data-old_color="#000000" fill="#FFFFFF"/>
	</g>
</g><g>
	<g>
		<path d="M256.296,144.282h-8.016c-9.116,0-16.532-7.417-16.532-16.532c0-9.116,7.417-16.533,16.532-16.533h32.063    c4.151,0,7.515-3.364,7.515-7.515c0-4.151-3.364-7.515-7.515-7.515H263.81v-8.517c0-4.151-3.364-7.515-7.515-7.515    c-4.15,0-7.515,3.364-7.515,7.515v8.517h-0.501c-17.403,0-31.562,14.159-31.562,31.562s14.159,31.562,31.562,31.562h8.016    c9.116,0,16.533,7.417,16.533,16.532s-7.417,16.532-16.533,16.532h-32.063c-4.15,0-7.515,3.364-7.515,7.515    s3.365,7.515,7.515,7.515h24.548v8.517c0,4.151,3.365,7.515,7.515,7.515c4.151,0,7.515-3.364,7.515-7.515v-9.427    c13.786-3.381,24.047-15.837,24.047-30.651C287.858,158.441,273.699,144.282,256.296,144.282z" data-original="#000000" class="active-path" data-old_color="#000000" fill="#FFFFFF"/>
	</g>
</g></g> </svg>
