<?xml version="1.0" encoding="utf-8"?>
<!-- Generator: Adobe Illustrator 16.0.0, SVG Export Plug-In . SVG Version: 6.00 Build 0)  -->
<!DOCTYPE svg PUBLIC "-//W3C//DTD SVG 1.1//EN" "http://www.w3.org/Graphics/SVG/1.1/DTD/svg11.dtd">
<svg version="1.1" id="Layer_1" xmlns:svgjs="http://svgjs.com/svgjs"
	 xmlns="http://www.w3.org/2000/svg" xmlns:xlink="http://www.w3.org/1999/xlink" x="0px" y="0px" width="512px" height="512px"
	 viewBox="0 0 512 512" enable-background="new 0 0 512 512" xml:space="preserve">
<g>
	<g>
		<g>
			<path fill="#0b0c1b" d="M362.6,384v64h106.7c20.2,0,42.7-15.7,42.7-38.3V320c0-11.8-9.6-21.3-21.3-21.4
				c-0.2,0-21.3-0.5-21.3-21.3c0-13.8,3.399-21.3,21.3-21.3c11.7,0,21.3-9.5,21.3-21.3V192H0v42.8c0,11.8,9.5,21.3,21.3,21.3
				c17.9,0,21.3,7.5,21.3,21.3c0,20.699-21.1,21.3-21.3,21.3C9.6,298.7,0,308.2,0,320v89.7C0,432.3,22.5,448,42.7,448h106.7v-64
				c0-11.8,9.5-21.3,21.3-21.3c11.7,0,21.3,9.5,21.3,21.3v64h42.7V341.3c0-11.8,9.6-21.3,21.3-21.3s21.3,9.5,21.3,21.3V448H320v-64
				c0-11.8,9.5-21.3,21.3-21.3S362.7,372.2,362.6,384z M149.3,277.3v-42.7H192v42.7H149.3z M234.6,277.3v-42.7h42.7v42.7H234.6z
				 M320,277.3v-42.7h42.7v42.7H320z"/>
		</g>
	</g>
	<g>
		<g>
			<path fill="#0b0c1b" d="M512,85.3c0-11.8-9.6-21.3-21.3-21.3H21.3C9.6,64,0,73.5,0,85.3v64h512V85.3z"/>
		</g>
	</g>
</g>
</svg>
