<svg id="Capa_1" enable-background="new 0 0 512 512" height="512" viewBox="0 0 512 512" width="512" xmlns="http://www.w3.org/2000/svg" xmlns:xlink="http://www.w3.org/1999/xlink"><linearGradient id="SVGID_1_" gradientUnits="userSpaceOnUse" x1="256" x2="256" y1="512" y2="31"><stop offset="0" stop-color="#ffc8d1"/><stop offset="1" stop-color="#fff6f7"/></linearGradient><linearGradient id="SVGID_2_" gradientUnits="userSpaceOnUse" x1="256" x2="256" y1="451" y2="0"><stop offset="0" stop-color="#fd3a84"/><stop offset="1" stop-color="#ffa68d"/></linearGradient><g><path d="m456 512h-400c-8.284 0-15-6.716-15-15v-466h430v466c0 8.284-6.716 15-15 15z" fill="url(#SVGID_1_)"/><path d="m467 0h-422c-24.813 0-45 20.187-45 45v105c0 24.813 20.187 45 45 45h422c24.813 0 45-20.187 45-45v-105c0-24.813-20.187-45-45-45zm-157 127.5c0 8.284-6.716 15-15 15h-220c-8.284 0-15-6.716-15-15v-60c0-8.284 6.716-15 15-15h220c8.284 0 15 6.716 15 15zm127 15h-80c-8.284 0-15-6.716-15-15s6.716-15 15-15h80c8.284 0 15 6.716 15 15s-6.716 15-15 15zm0-60h-80c-8.284 0-15-6.716-15-15s6.716-15 15-15h80c8.284 0 15 6.716 15 15s-6.716 15-15 15zm30 173.5h-422c-24.813 0-45 20.187-45 45v105c0 24.813 20.187 45 45 45h422c24.813 0 45-20.187 45-45v-105c0-24.813-20.187-45-45-45zm-157 127.5c0 8.284-6.716 15-15 15h-220c-8.284 0-15-6.716-15-15v-60c0-8.284 6.716-15 15-15h220c8.284 0 15 6.716 15 15zm127 15h-80c-8.284 0-15-6.716-15-15s6.716-15 15-15h80c8.284 0 15 6.716 15 15s-6.716 15-15 15zm0-60h-80c-8.284 0-15-6.716-15-15s6.716-15 15-15h80c8.284 0 15 6.716 15 15s-6.716 15-15 15z" fill="url(#SVGID_2_)"/></g></svg>