<?xml version="1.0" encoding="iso-8859-1"?>
<!-- Generator: Adobe Illustrator 19.0.0, SVG Export Plug-In . SVG Version: 6.00 Build 0)  -->
<svg version="1.1" id="Layer_1" xmlns="http://www.w3.org/2000/svg" xmlns:xlink="http://www.w3.org/1999/xlink" x="0px" y="0px"
	 viewBox="0 0 501.331 501.331" style="enable-background:new 0 0 501.331 501.331;" xml:space="preserve">
<path style="fill:#DD451F;" d="M376.485,131.32c-27.872-44.384-62.504-84.144-100.304-120.144c-4.168-3.64-7.984-7.792-12.36-11.176
	c11.72,30.152,15.976,63.488,11.016,95.52c-3.752,24.76-13.52,48.408-28.136,68.624c-14.112,19.56-32.184,35.8-51.312,50.288
	c-0.968-0.128-1.368-1.032-1.864-1.688c-8.832-10.72-15.456-23.264-19.384-36.584c-3.872-13.056-5.16-26.704-4.896-40.288
	c-0.32,0.2-0.84,0.648-1.088,0.848c-14.944,16.112-28.592,33.328-41.28,51.264c-14.864,21.184-28.256,43.472-39.192,67
	c-12.616,27.352-22.16,56.664-24.48,86.872c-2.248,28.536,2.448,58.088,16.672,83.04c12.304,21.832,31.432,39.176,53.176,51
	c23.504,12.808,49.712,19.88,76.104,23.192c23.32,2.992,46.824,2.664,70.176,0.92c19.568-1.632,39.208-4.616,57.952-10.664
	c15.056-4.872,29.536-11.952,42.224-21.632c11.52-8.84,21.504-19.752,29.488-31.968c9.264-14.168,16.032-29.824,21.184-45.936
	c3.672-11.12,5.656-22.752,7.024-34.376c2.952-27.816,1.28-56.008-3.8-83.496C424.197,221.768,403.477,174.264,376.485,131.32z"/>
<path style="fill:#ED7A1B;" d="M342.477,266.76c-12.912-31.288-30.632-60.384-50.752-87.424c-2.264-2.76-4.232-5.832-6.656-8.456
	c4.176,20.464,3.24,42.144-3.408,61.992c-5.088,15.36-13.896,29.344-25.4,40.624c-11.112,10.904-24.392,19.28-38.144,26.408
	c-0.6-0.184-0.752-0.816-1-1.28c-4.464-7.792-7.312-16.496-8.352-25.408c-1.04-8.736-0.368-17.56,1.272-26.176
	c-0.216,0.088-0.6,0.32-0.784,0.416c-11.264,8.624-21.832,18.104-31.864,28.128c-11.784,11.872-22.72,24.584-32.248,38.368
	c-11.032,16.032-20.288,33.648-25.064,52.632c-4.544,17.92-4.792,37.24,1.56,54.68c5.448,15.24,15.712,28.368,28.28,38.264
	c13.56,10.72,29.472,18.08,45.896,23.072c14.52,4.456,29.512,6.8,44.568,8.24c12.64,1.096,25.48,1.336,38.048-0.464
	c10.136-1.464,20.12-4.376,29.256-9.168c8.304-4.36,15.832-10.224,22.256-17.136c7.44-8,13.464-17.232,18.496-26.928
	c3.528-6.672,6.088-13.864,8.208-21.112c4.912-17.384,6.928-35.52,6.704-53.56C362.973,329.528,354.957,297.032,342.477,266.76z"/>
<path style="fill:#FFC200;" d="M197.989,373.288c6.328-15.336,15.024-29.608,24.872-42.864c1.12-1.352,2.08-2.848,3.272-4.144
	c-2.056,10.024-1.592,20.664,1.664,30.392c2.496,7.528,6.816,14.384,12.456,19.92c5.44,5.336,11.952,9.44,18.696,12.936
	c0.296-0.08,0.368-0.4,0.496-0.616c2.184-3.832,3.576-8.096,4.088-12.456c0.52-4.28,0.176-8.616-0.624-12.832
	c0.12,0.048,0.304,0.16,0.4,0.208c5.52,4.224,10.688,8.872,15.616,13.784c5.768,5.824,11.144,12.056,15.808,18.816
	c5.416,7.864,9.944,16.496,12.28,25.8c2.232,8.784,2.344,18.256-0.744,26.808c-2.68,7.472-7.712,13.904-13.88,18.76
	c-6.656,5.256-14.44,8.864-22.496,11.312c-7.12,2.176-14.48,3.328-21.848,4.04c-6.192,0.536-12.488,0.656-18.648-0.232
	c-4.968-0.72-9.864-2.152-14.336-4.496c-4.088-2.136-7.776-5-10.92-8.4c-3.64-3.92-6.592-8.448-9.056-13.192
	c-1.736-3.28-2.984-6.8-4.032-10.352c-2.416-8.52-3.408-17.408-3.288-26.264C187.949,404.056,191.861,388.128,197.989,373.288z"/>
<g>
</g>
<g>
</g>
<g>
</g>
<g>
</g>
<g>
</g>
<g>
</g>
<g>
</g>
<g>
</g>
<g>
</g>
<g>
</g>
<g>
</g>
<g>
</g>
<g>
</g>
<g>
</g>
<g>
</g>
</svg>
