<svg xmlns="http://www.w3.org/2000/svg" viewBox="0 0 24 24">
	<path d="M20 17.5c0 .28-.22.5-.5.5H8v1.5c0 .28-.22.5-.5.5s-.5-.22-.5-.5V18H3.5c-.28 0-.5-.22-.5-.5s.22-.5.5-.5H7v-1.5c0-.28.22-.5.5-.5s.5.22.5.5V17h11.5c.28 0 .5.22.5.5zM3.5 6H7v1.5c0 .28.22.5.5.5s.5-.22.5-.5V6h11.5c.28 0 .5-.22.5-.5s-.22-.5-.5-.5H8V3.5c0-.28-.22-.5-.5-.5s-.5.22-.5.5V5H3.5c-.28 0-.5.22-.5.5s.22.5.5.5zm16 5H16V9.5c0-.28-.22-.5-.5-.5s-.5.22-.5.5V11H3.5c-.28 0-.5.22-.5.5s.22.5.5.5H15v1.5c0 .28.22.5.5.5s.5-.22.5-.5V12h3.5c.28 0 .5-.22.5-.5s-.22-.5-.5-.5z"/>
</svg>